# Blender 5.1.2
# www.blender.org
o Sphere
v 0.000000 1.000000 0.000000
v 0.000000 0.831470 -0.555570
v 0.000000 0.555570 -0.831470
v 0.000000 0.195090 -0.980785
v 0.000000 0.000000 -1.000000
v 0.000000 -0.195090 -0.980785
v 0.000000 -0.555570 -0.831470
v 0.000000 -1.000000 0.000000
v 0.038060 0.980785 -0.191342
v 0.074658 0.923880 -0.375330
v 0.108386 0.831470 -0.544895
v 0.137950 0.707107 -0.693520
v 0.162212 0.555570 -0.815493
v 0.180240 0.382683 -0.906127
v 0.191342 0.195090 -0.961940
v 0.195090 0.000000 -0.980785
v 0.191342 -0.195090 -0.961940
v 0.180240 -0.382683 -0.906127
v 0.162212 -0.555570 -0.815493
v 0.137950 -0.707107 -0.693520
v 0.108386 -0.831470 -0.544895
v 0.074658 -0.923880 -0.375330
v 0.038060 -0.980785 -0.191342
v 0.074658 0.980785 -0.180240
v 0.146447 0.923880 -0.353553
v 0.212608 0.831470 -0.513280
v 0.270598 0.707107 -0.653281
v 0.318190 0.555570 -0.768178
v 0.353553 0.382683 -0.853553
v 0.375330 0.195090 -0.906127
v 0.382683 0.000000 -0.923879
v 0.375330 -0.195090 -0.906127
v 0.353553 -0.382683 -0.853553
v 0.318190 -0.555570 -0.768178
v 0.270598 -0.707107 -0.653281
v 0.212608 -0.831470 -0.513280
v 0.146447 -0.923880 -0.353553
v 0.074658 -0.980785 -0.180240
v 0.108386 0.980785 -0.162212
v 0.212608 0.923880 -0.318190
v 0.308658 0.831470 -0.461940
v 0.392847 0.707107 -0.587938
v 0.461940 0.555570 -0.691342
v 0.513280 0.382683 -0.768178
v 0.544895 0.195090 -0.815493
v 0.555570 0.000000 -0.831469
v 0.544895 -0.195090 -0.815493
v 0.513280 -0.382683 -0.768178
v 0.461940 -0.555570 -0.691342
v 0.392847 -0.707107 -0.587938
v 0.308658 -0.831470 -0.461940
v 0.212608 -0.923880 -0.318190
v 0.108386 -0.980785 -0.162212
v 0.137950 0.980785 -0.137950
v 0.270598 0.923880 -0.270598
v 0.392847 0.831470 -0.392847
v 0.500000 0.707107 -0.500000
v 0.587938 0.555570 -0.587938
v 0.653281 0.382683 -0.653281
v 0.693520 0.195090 -0.693520
v 0.707107 0.000000 -0.707107
v 0.693520 -0.195090 -0.693520
v 0.653281 -0.382683 -0.653281
v 0.587938 -0.555570 -0.587938
v 0.500000 -0.707107 -0.500000
v 0.392847 -0.831470 -0.392847
v 0.270598 -0.923880 -0.270598
v 0.137950 -0.980785 -0.137950
v 0.162212 0.980785 -0.108386
v 0.318190 0.923880 -0.212608
v 0.461940 0.831470 -0.308658
v 0.587938 0.707107 -0.392847
v 0.691342 0.555570 -0.461940
v 0.768178 0.382683 -0.513280
v 0.815493 0.195090 -0.544895
v 0.831470 0.000000 -0.555570
v 0.815493 -0.195090 -0.544895
v 0.768178 -0.382683 -0.513280
v 0.691342 -0.555570 -0.461940
v 0.587938 -0.707107 -0.392847
v 0.461940 -0.831470 -0.308658
v 0.318190 -0.923880 -0.212608
v 0.162212 -0.980785 -0.108386
v 0.180240 0.980785 -0.074658
v 0.353553 0.923880 -0.146447
v 0.513280 0.831470 -0.212607
v 0.653281 0.707107 -0.270598
v 0.768178 0.555570 -0.318190
v 0.853553 0.382683 -0.353553
v 0.906127 0.195090 -0.375330
v 0.923879 0.000000 -0.382683
v 0.906127 -0.195090 -0.375330
v 0.853553 -0.382683 -0.353553
v 0.768178 -0.555570 -0.318190
v 0.653281 -0.707107 -0.270598
v 0.513280 -0.831470 -0.212607
v 0.353553 -0.923880 -0.146447
v 0.180240 -0.980785 -0.074658
v 0.191342 0.980785 -0.038060
v 0.375330 0.923880 -0.074658
v 0.544895 0.831470 -0.108386
v 0.693520 0.707107 -0.137950
v 0.815493 0.555570 -0.162212
v 0.906127 0.382683 -0.180240
v 0.961940 0.195090 -0.191342
v 0.980785 0.000000 -0.195090
v 0.961940 -0.195090 -0.191342
v 0.906127 -0.382683 -0.180240
v 0.815493 -0.555570 -0.162212
v 0.693520 -0.707107 -0.137950
v 0.544895 -0.831470 -0.108386
v 0.375330 -0.923880 -0.074658
v 0.191342 -0.980785 -0.038060
v 0.195090 0.980785 0.000000
v 0.382683 0.923880 0.000000
v 0.555570 0.831470 0.000000
v 0.707107 0.707107 -0.000000
v 0.831469 0.555570 0.000000
v 0.923879 0.382683 -0.000000
v 0.980785 0.195090 0.000000
v 1.000000 0.000000 0.000000
v 0.980785 -0.195090 0.000000
v 0.923879 -0.382683 -0.000000
v 0.831469 -0.555570 0.000000
v 0.707107 -0.707107 -0.000000
v 0.555570 -0.831470 0.000000
v 0.382683 -0.923880 0.000000
v 0.195090 -0.980785 0.000000
v 0.191342 0.980785 0.038060
v 0.375330 0.923880 0.074658
v 0.544895 0.831470 0.108386
v 0.693520 0.707107 0.137950
v 0.815493 0.555570 0.162212
v 0.906127 0.382683 0.180240
v 0.961940 0.195090 0.191342
v 0.980785 0.000000 0.195090
v 0.961940 -0.195090 0.191342
v 0.906127 -0.382683 0.180240
v 0.815493 -0.555570 0.162212
v 0.693520 -0.707107 0.137950
v 0.544895 -0.831470 0.108386
v 0.375330 -0.923880 0.074658
v 0.191342 -0.980785 0.038060
v 0.180240 0.980785 0.074658
v 0.353553 0.923880 0.146447
v 0.513280 0.831470 0.212608
v 0.653281 0.707107 0.270598
v 0.768178 0.555570 0.318190
v 0.853553 0.382683 0.353553
v 0.906127 0.195090 0.375330
v 0.923879 0.000000 0.382683
v 0.906127 -0.195090 0.375330
v 0.853553 -0.382683 0.353553
v 0.768178 -0.555570 0.318190
v 0.653281 -0.707107 0.270598
v 0.513280 -0.831470 0.212608
v 0.353553 -0.923880 0.146447
v 0.180240 -0.980785 0.074658
v 0.162212 0.980785 0.108386
v 0.318190 0.923880 0.212608
v 0.461940 0.831470 0.308658
v 0.587938 0.707107 0.392847
v 0.691341 0.555570 0.461940
v 0.768178 0.382683 0.513280
v 0.815493 0.195090 0.544895
v 0.831469 0.000000 0.555570
v 0.815493 -0.195090 0.544895
v 0.768178 -0.382683 0.513280
v 0.691341 -0.555570 0.461940
v 0.587938 -0.707107 0.392847
v 0.461940 -0.831470 0.308658
v 0.318190 -0.923880 0.212608
v 0.162212 -0.980785 0.108386
v 0.137950 0.980785 0.137950
v 0.270598 0.923880 0.270598
v 0.392847 0.831470 0.392847
v 0.500000 0.707107 0.500000
v 0.587938 0.555570 0.587938
v 0.653281 0.382683 0.653281
v 0.693520 0.195090 0.693520
v 0.707106 0.000000 0.707107
v 0.693520 -0.195090 0.693520
v 0.653281 -0.382683 0.653281
v 0.587938 -0.555570 0.587938
v 0.500000 -0.707107 0.500000
v 0.392847 -0.831470 0.392847
v 0.270598 -0.923880 0.270598
v 0.137950 -0.980785 0.137950
v 0.108386 0.980785 0.162212
v 0.212607 0.923880 0.318190
v 0.308658 0.831470 0.461940
v 0.392847 0.707107 0.587938
v 0.461940 0.555570 0.691342
v 0.513280 0.382683 0.768178
v 0.544895 0.195090 0.815493
v 0.555570 0.000000 0.831469
v 0.544895 -0.195090 0.815493
v 0.513280 -0.382683 0.768178
v 0.461940 -0.555570 0.691342
v 0.392847 -0.707107 0.587938
v 0.308658 -0.831470 0.461940
v 0.212607 -0.923880 0.318190
v 0.108386 -0.980785 0.162212
v 0.074658 0.980785 0.180240
v 0.146447 0.923880 0.353553
v 0.212607 0.831470 0.513280
v 0.270598 0.707107 0.653281
v 0.318189 0.555570 0.768178
v 0.353553 0.382683 0.853553
v 0.375330 0.195090 0.906127
v 0.382683 0.000000 0.923879
v 0.375330 -0.195090 0.906127
v 0.353553 -0.382683 0.853553
v 0.318189 -0.555570 0.768178
v 0.270598 -0.707107 0.653281
v 0.212607 -0.831470 0.513280
v 0.146447 -0.923880 0.353553
v 0.074658 -0.980785 0.180240
v 0.038060 0.980785 0.191342
v 0.074658 0.923880 0.375330
v 0.108386 0.831470 0.544895
v 0.137950 0.707107 0.693520
v 0.162212 0.555570 0.815493
v 0.180240 0.382683 0.906127
v 0.191342 0.195090 0.961939
v 0.195090 0.000000 0.980785
v 0.191342 -0.195090 0.961939
v 0.180240 -0.382683 0.906127
v 0.162212 -0.555570 0.815493
v 0.137950 -0.707107 0.693520
v 0.108386 -0.831470 0.544895
v 0.074658 -0.923880 0.375330
v 0.038060 -0.980785 0.191342
v -0.000000 0.980785 0.195090
v -0.000000 0.923880 0.382683
v -0.000000 0.831470 0.555570
v -0.000000 0.707107 0.707107
v -0.000000 0.555570 0.831469
v 0.000000 0.382683 0.923879
v -0.000000 0.195090 0.980785
v -0.000000 0.000000 0.999999
v -0.000000 -0.195090 0.980785
v 0.000000 -0.382683 0.923879
v -0.000000 -0.555570 0.831469
v -0.000000 -0.707107 0.707107
v -0.000000 -0.831470 0.555570
v -0.000000 -0.923880 0.382683
v -0.000000 -0.980785 0.195090
v -0.038060 0.980785 0.191342
v -0.074658 0.923880 0.375330
v -0.108386 0.831470 0.544895
v -0.137950 0.707107 0.693520
v -0.162212 0.555570 0.815493
v -0.180240 0.382683 0.906127
v -0.191342 0.195090 0.961939
v -0.195091 0.000000 0.980785
v -0.191342 -0.195090 0.961939
v -0.180240 -0.382683 0.906127
v -0.162212 -0.555570 0.815493
v -0.137950 -0.707107 0.693520
v -0.108386 -0.831470 0.544895
v -0.074658 -0.923880 0.375330
v -0.038060 -0.980785 0.191342
v -0.074658 0.980785 0.180240
v -0.146447 0.923880 0.353553
v -0.212608 0.831470 0.513280
v -0.270598 0.707107 0.653281
v -0.318190 0.555570 0.768177
v -0.353553 0.382683 0.853553
v -0.375330 0.195090 0.906127
v -0.382683 0.000000 0.923879
v -0.375330 -0.195090 0.906127
v -0.353553 -0.382683 0.853553
v -0.318190 -0.555570 0.768177
v -0.270598 -0.707107 0.653281
v -0.212608 -0.831470 0.513280
v -0.146447 -0.923880 0.353553
v -0.074658 -0.980785 0.180240
v -0.108386 0.980785 0.162212
v -0.212608 0.923880 0.318190
v -0.308658 0.831470 0.461939
v -0.392847 0.707107 0.587938
v -0.461940 0.555570 0.691341
v -0.513280 0.382683 0.768178
v -0.544895 0.195090 0.815493
v -0.555570 0.000000 0.831469
v -0.544895 -0.195090 0.815493
v -0.513280 -0.382683 0.768178
v -0.461940 -0.555570 0.691341
v -0.392847 -0.707107 0.587938
v -0.308658 -0.831470 0.461939
v -0.212608 -0.923880 0.318190
v -0.108386 -0.980785 0.162212
v -0.137950 0.980785 0.137950
v -0.270598 0.923880 0.270598
v -0.392847 0.831470 0.392847
v -0.500000 0.707107 0.500000
v -0.587938 0.555570 0.587937
v -0.653281 0.382683 0.653281
v -0.693520 0.195090 0.693520
v -0.707106 0.000000 0.707106
v -0.693520 -0.195090 0.693520
v -0.653281 -0.382683 0.653281
v -0.587938 -0.555570 0.587937
v -0.500000 -0.707107 0.500000
v -0.392847 -0.831470 0.392847
v -0.270598 -0.923880 0.270598
v -0.137950 -0.980785 0.137950
v -0.162212 0.980785 0.108386
v -0.318190 0.923880 0.212607
v -0.461940 0.831470 0.308658
v -0.587938 0.707107 0.392847
v -0.691341 0.555570 0.461939
v -0.768177 0.382683 0.513280
v -0.815493 0.195090 0.544895
v -0.831469 0.000000 0.555569
v -0.815493 -0.195090 0.544895
v -0.768177 -0.382683 0.513280
v -0.691341 -0.555570 0.461939
v -0.587938 -0.707107 0.392847
v -0.461940 -0.831470 0.308658
v -0.318190 -0.923880 0.212607
v -0.162212 -0.980785 0.108386
v -0.180240 0.980785 0.074658
v -0.353553 0.923880 0.146447
v -0.513280 0.831470 0.212607
v -0.653281 0.707107 0.270598
v -0.768177 0.555570 0.318189
v -0.853553 0.382683 0.353553
v -0.906127 0.195090 0.375330
v -0.923879 0.000000 0.382683
v -0.906127 -0.195090 0.375330
v -0.853553 -0.382683 0.353553
v -0.768177 -0.555570 0.318189
v -0.653281 -0.707107 0.270598
v -0.513280 -0.831470 0.212607
v -0.353553 -0.923880 0.146447
v -0.180240 -0.980785 0.074658
v -0.191342 0.980785 0.038060
v -0.375330 0.923880 0.074658
v -0.544895 0.831470 0.108386
v -0.693520 0.707107 0.137950
v -0.815493 0.555570 0.162211
v -0.906127 0.382683 0.180240
v -0.961939 0.195090 0.191341
v -0.980784 0.000000 0.195090
v -0.961939 -0.195090 0.191341
v -0.906127 -0.382683 0.180240
v -0.815493 -0.555570 0.162211
v -0.693520 -0.707107 0.137950
v -0.544895 -0.831470 0.108386
v -0.375330 -0.923880 0.074658
v -0.191342 -0.980785 0.038060
v -0.195090 0.980785 -0.000000
v -0.382683 0.923880 -0.000000
v -0.555570 0.831470 -0.000000
v -0.707107 0.707107 -0.000000
v -0.831469 0.555570 -0.000000
v -0.923879 0.382683 -0.000000
v -0.980785 0.195090 -0.000000
v -0.999999 0.000000 -0.000000
v -0.980785 -0.195090 -0.000000
v -0.923879 -0.382683 -0.000000
v -0.831469 -0.555570 -0.000000
v -0.707107 -0.707107 -0.000000
v -0.555570 -0.831470 -0.000000
v -0.382683 -0.923880 -0.000000
v -0.195090 -0.980785 -0.000000
v -0.191342 0.980785 -0.038060
v -0.375330 0.923880 -0.074658
v -0.544895 0.831470 -0.108386
v -0.693520 0.707107 -0.137950
v -0.815493 0.555570 -0.162212
v -0.906127 0.382683 -0.180240
v -0.961939 0.195090 -0.191342
v -0.980784 0.000000 -0.195091
v -0.961939 -0.195090 -0.191342
v -0.906127 -0.382683 -0.180240
v -0.815493 -0.555570 -0.162212
v -0.693520 -0.707107 -0.137950
v -0.544895 -0.831470 -0.108386
v -0.375330 -0.923880 -0.074658
v -0.191342 -0.980785 -0.038060
v -0.180240 0.980785 -0.074658
v -0.353553 0.923880 -0.146447
v -0.513279 0.831470 -0.212607
v -0.653281 0.707107 -0.270598
v -0.768177 0.555570 -0.318190
v -0.853553 0.382683 -0.353553
v -0.906127 0.195090 -0.375330
v -0.923878 0.000000 -0.382683
v -0.906127 -0.195090 -0.375330
v -0.853553 -0.382683 -0.353553
v -0.768177 -0.555570 -0.318190
v -0.653281 -0.707107 -0.270598
v -0.513279 -0.831470 -0.212607
v -0.353553 -0.923880 -0.146447
v -0.180240 -0.980785 -0.074658
v -0.162212 0.980785 -0.108386
v -0.318189 0.923880 -0.212607
v -0.461939 0.831470 -0.308658
v -0.587938 0.707107 -0.392847
v -0.691341 0.555570 -0.461940
v -0.768177 0.382683 -0.513280
v -0.815493 0.195090 -0.544895
v -0.831468 0.000000 -0.555570
v -0.815493 -0.195090 -0.544895
v -0.768177 -0.382683 -0.513280
v -0.691341 -0.555570 -0.461940
v -0.587938 -0.707107 -0.392847
v -0.461939 -0.831470 -0.308658
v -0.318189 -0.923880 -0.212607
v -0.162212 -0.980785 -0.108386
v -0.137950 0.980785 -0.137950
v -0.270598 0.923880 -0.270598
v -0.392847 0.831470 -0.392847
v -0.500000 0.707107 -0.500000
v -0.587937 0.555570 -0.587938
v -0.653281 0.382683 -0.653281
v -0.693519 0.195090 -0.693520
v -0.707106 0.000000 -0.707106
v -0.693519 -0.195090 -0.693520
v -0.653281 -0.382683 -0.653281
v -0.587937 -0.555570 -0.587938
v -0.500000 -0.707107 -0.500000
v -0.392847 -0.831470 -0.392847
v -0.270598 -0.923880 -0.270598
v -0.137950 -0.980785 -0.137950
v -0.108386 0.980785 -0.162212
v -0.212607 0.923880 -0.318190
v -0.308658 0.831470 -0.461939
v -0.392847 0.707107 -0.587938
v -0.461939 0.555570 -0.691341
v -0.513280 0.382683 -0.768177
v -0.544895 0.195090 -0.815493
v -0.555569 0.000000 -0.831469
v -0.544895 -0.195090 -0.815493
v -0.513280 -0.382683 -0.768177
v -0.461939 -0.555570 -0.691341
v -0.392847 -0.707107 -0.587938
v -0.308658 -0.831470 -0.461939
v -0.212607 -0.923880 -0.318190
v -0.108386 -0.980785 -0.162212
v -0.074658 0.980785 -0.180240
v -0.146446 0.923880 -0.353553
v -0.212607 0.831470 -0.513279
v -0.270598 0.707107 -0.653281
v -0.318189 0.555570 -0.768177
v -0.353553 0.382683 -0.853553
v -0.375330 0.195090 -0.906127
v -0.382683 0.000000 -0.923879
v -0.375330 -0.195090 -0.906127
v -0.353553 -0.382683 -0.853553
v -0.318189 -0.555570 -0.768177
v -0.270598 -0.707107 -0.653281
v -0.212607 -0.831470 -0.513279
v -0.146446 -0.923880 -0.353553
v -0.074658 -0.980785 -0.180240
v -0.038060 0.980785 -0.191342
v -0.074658 0.923880 -0.375330
v -0.108386 0.831470 -0.544895
v -0.137950 0.707107 -0.693520
v -0.162211 0.555570 -0.815493
v -0.180240 0.382683 -0.906127
v -0.191341 0.195090 -0.961939
v -0.195090 0.000000 -0.980784
v -0.191341 -0.195090 -0.961939
v -0.180240 -0.382683 -0.906127
v -0.162211 -0.555570 -0.815493
v -0.137950 -0.707107 -0.693520
v -0.108386 -0.831470 -0.544895
v -0.074658 -0.923880 -0.375330
v -0.038060 -0.980785 -0.191342
v 0.000000 0.980785 -0.195090
v 0.000000 0.923880 -0.382683
v 0.000000 0.707107 -0.707107
v 0.000000 0.382683 -0.923879
v 0.000000 -0.382683 -0.923879
v 0.000000 -0.707107 -0.707107
v 0.000000 -0.831470 -0.555570
v 0.000000 -0.923880 -0.382683
v 0.000000 -0.980785 -0.195090
vn 0.0938 -0.2890 -0.9527
vn 0.0464 0.8810 -0.4709
vn 0.0865 -0.4696 -0.8786
vn 0.0624 0.7715 -0.6332
vn 0.0759 -0.6326 -0.7708
vn 0.0759 0.6326 -0.7708
vn 0.0624 -0.7715 -0.6332
vn 0.0865 0.4696 -0.8786
vn 0.0464 -0.8810 -0.4709
vn 0.0938 0.2890 -0.9527
vn 0.0286 -0.9565 -0.2902
vn 0.0975 0.0975 -0.9904
vn 0.0097 0.9951 -0.0980
vn 0.0097 -0.9951 -0.0980
vn 0.0975 -0.0976 -0.9904
vn 0.0286 0.9565 -0.2902
vn 0.0286 -0.9951 -0.0942
vn 0.2889 -0.0976 -0.9524
vn 0.0846 0.9565 -0.2790
vn 0.2779 -0.2890 -0.9161
vn 0.1374 0.8810 -0.4528
vn 0.2563 -0.4696 -0.8448
vn 0.1847 0.7715 -0.6088
vn 0.2248 -0.6326 -0.7412
vn 0.2248 0.6326 -0.7412
vn 0.1847 -0.7715 -0.6088
vn 0.2563 0.4696 -0.8448
vn 0.1374 -0.8810 -0.4528
vn 0.2779 0.2890 -0.9161
vn 0.0846 -0.9565 -0.2790
vn 0.2889 0.0976 -0.9524
vn 0.0286 0.9951 -0.0942
vn 0.2999 -0.7715 -0.5611
vn 0.4162 0.4696 -0.7786
vn 0.2230 -0.8810 -0.4173
vn 0.4513 0.2890 -0.8443
vn 0.1374 -0.9565 -0.2571
vn 0.4691 0.0975 -0.8777
vn 0.0464 0.9951 -0.0869
vn 0.0464 -0.9951 -0.0869
vn 0.4691 -0.0975 -0.8777
vn 0.1374 0.9565 -0.2571
vn 0.4513 -0.2890 -0.8443
vn 0.2231 0.8810 -0.4173
vn 0.4162 -0.4696 -0.7786
vn 0.2999 0.7715 -0.5611
vn 0.3651 -0.6326 -0.6831
vn 0.3651 0.6326 -0.6831
vn 0.1850 0.9565 -0.2254
vn 0.6073 -0.2890 -0.7400
vn 0.3002 0.8810 -0.3658
vn 0.5601 -0.4696 -0.6825
vn 0.4036 0.7715 -0.4918
vn 0.4913 -0.6326 -0.5987
vn 0.4913 0.6326 -0.5987
vn 0.4036 -0.7715 -0.4918
vn 0.5601 0.4696 -0.6825
vn 0.3002 -0.8810 -0.3658
vn 0.6073 0.2890 -0.7400
vn 0.1850 -0.9565 -0.2254
vn 0.6314 0.0975 -0.7693
vn 0.0625 0.9951 -0.0761
vn 0.0625 -0.9951 -0.0761
vn 0.6314 -0.0975 -0.7693
vn 0.6825 0.4696 -0.5601
vn 0.3658 -0.8810 -0.3002
vn 0.7400 0.2890 -0.6073
vn 0.2254 -0.9566 -0.1850
vn 0.7693 0.0975 -0.6314
vn 0.0761 0.9951 -0.0625
vn 0.0761 -0.9951 -0.0625
vn 0.7693 -0.0975 -0.6314
vn 0.2254 0.9565 -0.1850
vn 0.7400 -0.2890 -0.6073
vn 0.3658 0.8810 -0.3002
vn 0.6825 -0.4696 -0.5601
vn 0.4918 0.7715 -0.4036
vn 0.5987 -0.6326 -0.4913
vn 0.5987 0.6326 -0.4913
vn 0.4918 -0.7715 -0.4036
vn 0.8443 -0.2890 -0.4513
vn 0.4173 0.8810 -0.2230
vn 0.7786 -0.4696 -0.4162
vn 0.5611 0.7715 -0.2999
vn 0.6831 -0.6326 -0.3651
vn 0.6831 0.6326 -0.3651
vn 0.5611 -0.7715 -0.2999
vn 0.7786 0.4696 -0.4162
vn 0.4173 -0.8810 -0.2230
vn 0.8443 0.2890 -0.4513
vn 0.2571 -0.9565 -0.1374
vn 0.8777 0.0975 -0.4691
vn 0.0869 0.9951 -0.0464
vn 0.0869 -0.9951 -0.0464
vn 0.8777 -0.0975 -0.4691
vn 0.2571 0.9565 -0.1374
vn 0.4528 -0.8810 -0.1374
vn 0.9161 0.2890 -0.2779
vn 0.2790 -0.9565 -0.0846
vn 0.9524 0.0975 -0.2889
vn 0.0942 0.9951 -0.0286
vn 0.0942 -0.9951 -0.0286
vn 0.9524 -0.0975 -0.2889
vn 0.2790 0.9565 -0.0846
vn 0.9161 -0.2890 -0.2779
vn 0.4528 0.8810 -0.1374
vn 0.8448 -0.4696 -0.2563
vn 0.6088 0.7715 -0.1847
vn 0.7412 -0.6326 -0.2248
vn 0.7412 0.6326 -0.2248
vn 0.6088 -0.7715 -0.1847
vn 0.8448 0.4696 -0.2563
vn 0.4709 0.8810 -0.0464
vn 0.8786 -0.4696 -0.0865
vn 0.6332 0.7715 -0.0624
vn 0.7708 -0.6326 -0.0759
vn 0.7708 0.6326 -0.0759
vn 0.6332 -0.7715 -0.0624
vn 0.8786 0.4696 -0.0865
vn 0.4709 -0.8810 -0.0464
vn 0.9527 0.2890 -0.0938
vn 0.2902 -0.9565 -0.0286
vn 0.9904 0.0975 -0.0975
vn 0.0980 0.9951 -0.0097
vn 0.0980 -0.9951 -0.0097
vn 0.9904 -0.0975 -0.0975
vn 0.2902 0.9565 -0.0286
vn 0.9527 -0.2890 -0.0938
vn 0.9527 0.2890 0.0938
vn 0.2902 -0.9565 0.0286
vn 0.9904 0.0975 0.0976
vn 0.0980 0.9951 0.0097
vn 0.0980 -0.9951 0.0097
vn 0.9904 -0.0975 0.0976
vn 0.2902 0.9565 0.0286
vn 0.9527 -0.2890 0.0938
vn 0.4709 0.8810 0.0464
vn 0.8786 -0.4696 0.0865
vn 0.6332 0.7715 0.0624
vn 0.7708 -0.6326 0.0759
vn 0.7708 0.6326 0.0759
vn 0.6332 -0.7715 0.0624
vn 0.8786 0.4696 0.0865
vn 0.4709 -0.8810 0.0464
vn 0.8448 -0.4696 0.2563
vn 0.6088 0.7715 0.1847
vn 0.7412 -0.6326 0.2248
vn 0.7412 0.6326 0.2248
vn 0.6088 -0.7715 0.1847
vn 0.8448 0.4696 0.2563
vn 0.4528 -0.8810 0.1374
vn 0.9161 0.2890 0.2779
vn 0.2790 -0.9565 0.0846
vn 0.9524 0.0975 0.2889
vn 0.0942 0.9951 0.0286
vn 0.0942 -0.9951 0.0286
vn 0.9524 -0.0975 0.2889
vn 0.2790 0.9565 0.0846
vn 0.9161 -0.2890 0.2779
vn 0.4528 0.8810 0.1374
vn 0.2571 -0.9565 0.1374
vn 0.8777 0.0975 0.4691
vn 0.0869 0.9951 0.0464
vn 0.0869 -0.9951 0.0464
vn 0.8777 -0.0975 0.4691
vn 0.2571 0.9565 0.1374
vn 0.8443 -0.2890 0.4513
vn 0.4173 0.8810 0.2231
vn 0.7786 -0.4696 0.4162
vn 0.5611 0.7715 0.2999
vn 0.6831 -0.6326 0.3651
vn 0.6831 0.6326 0.3651
vn 0.5611 -0.7715 0.2999
vn 0.7786 0.4696 0.4162
vn 0.4173 -0.8810 0.2230
vn 0.8443 0.2890 0.4513
vn 0.5987 -0.6326 0.4913
vn 0.5987 0.6326 0.4913
vn 0.4918 -0.7715 0.4036
vn 0.6825 0.4696 0.5601
vn 0.3658 -0.8810 0.3002
vn 0.7400 0.2890 0.6073
vn 0.2254 -0.9565 0.1850
vn 0.7693 0.0975 0.6314
vn 0.0761 0.9951 0.0625
vn 0.0761 -0.9951 0.0625
vn 0.7693 -0.0975 0.6314
vn 0.2254 0.9565 0.1850
vn 0.7400 -0.2890 0.6073
vn 0.3658 0.8810 0.3002
vn 0.6825 -0.4696 0.5601
vn 0.4918 0.7715 0.4036
vn 0.0625 0.9951 0.0761
vn 0.0625 -0.9951 0.0761
vn 0.6314 -0.0975 0.7693
vn 0.1850 0.9565 0.2254
vn 0.6073 -0.2890 0.7400
vn 0.3002 0.8810 0.3658
vn 0.5601 -0.4696 0.6825
vn 0.4036 0.7715 0.4918
vn 0.4913 -0.6326 0.5987
vn 0.4913 0.6326 0.5987
vn 0.4036 -0.7715 0.4918
vn 0.5601 0.4696 0.6825
vn 0.3002 -0.8810 0.3658
vn 0.6073 0.2890 0.7400
vn 0.1850 -0.9565 0.2254
vn 0.6314 0.0975 0.7693
vn 0.3651 0.6326 0.6831
vn 0.2999 -0.7715 0.5611
vn 0.4162 0.4696 0.7786
vn 0.2230 -0.8810 0.4173
vn 0.4513 0.2890 0.8443
vn 0.1374 -0.9565 0.2571
vn 0.4691 0.0975 0.8777
vn 0.0464 0.9951 0.0869
vn 0.0464 -0.9951 0.0869
vn 0.4691 -0.0975 0.8777
vn 0.1374 0.9565 0.2571
vn 0.4513 -0.2890 0.8443
vn 0.2230 0.8810 0.4173
vn 0.4162 -0.4696 0.7786
vn 0.2999 0.7715 0.5611
vn 0.3651 -0.6326 0.6831
vn 0.2889 -0.0975 0.9524
vn 0.0846 0.9565 0.2790
vn 0.2779 -0.2890 0.9161
vn 0.1374 0.8810 0.4528
vn 0.2563 -0.4696 0.8448
vn 0.1847 0.7715 0.6088
vn 0.2248 -0.6326 0.7412
vn 0.2248 0.6326 0.7412
vn 0.1847 -0.7715 0.6088
vn 0.2563 0.4696 0.8448
vn 0.1374 -0.8810 0.4528
vn 0.2779 0.2890 0.9161
vn 0.0846 -0.9565 0.2790
vn 0.2889 0.0975 0.9524
vn 0.0286 0.9951 0.0942
vn 0.0286 -0.9951 0.0942
vn 0.0624 -0.7715 0.6332
vn 0.0865 0.4696 0.8786
vn 0.0464 -0.8810 0.4709
vn 0.0938 0.2890 0.9527
vn 0.0286 -0.9565 0.2902
vn 0.0975 0.0975 0.9904
vn 0.0097 0.9951 0.0980
vn 0.0097 -0.9951 0.0980
vn 0.0975 -0.0975 0.9904
vn 0.0286 0.9565 0.2902
vn 0.0938 -0.2890 0.9527
vn 0.0464 0.8810 0.4709
vn 0.0865 -0.4696 0.8786
vn 0.0624 0.7715 0.6332
vn 0.0759 -0.6326 0.7708
vn 0.0759 0.6326 0.7708
vn -0.0286 0.9565 0.2902
vn -0.0938 -0.2890 0.9527
vn -0.0464 0.8810 0.4709
vn -0.0865 -0.4696 0.8786
vn -0.0624 0.7715 0.6332
vn -0.0759 -0.6326 0.7708
vn -0.0759 0.6326 0.7708
vn -0.0624 -0.7715 0.6332
vn -0.0865 0.4696 0.8786
vn -0.0464 -0.8810 0.4709
vn -0.0938 0.2890 0.9527
vn -0.0286 -0.9565 0.2902
vn -0.0976 0.0975 0.9904
vn -0.0097 0.9951 0.0980
vn -0.0097 -0.9951 0.0980
vn -0.0975 -0.0975 0.9904
vn -0.2563 0.4696 0.8448
vn -0.1374 -0.8810 0.4528
vn -0.2779 0.2890 0.9161
vn -0.0846 -0.9565 0.2790
vn -0.2889 0.0975 0.9524
vn -0.0286 0.9951 0.0942
vn -0.0286 -0.9951 0.0942
vn -0.2889 -0.0975 0.9524
vn -0.0846 0.9565 0.2790
vn -0.2779 -0.2890 0.9161
vn -0.1374 0.8810 0.4528
vn -0.2563 -0.4696 0.8448
vn -0.1847 0.7715 0.6088
vn -0.2248 -0.6326 0.7412
vn -0.2248 0.6326 0.7412
vn -0.1847 -0.7715 0.6088
vn -0.4513 -0.2890 0.8443
vn -0.2230 0.8810 0.4173
vn -0.4162 -0.4696 0.7786
vn -0.2999 0.7715 0.5611
vn -0.3651 -0.6326 0.6831
vn -0.3651 0.6326 0.6831
vn -0.2999 -0.7715 0.5611
vn -0.4162 0.4696 0.7786
vn -0.2230 -0.8810 0.4173
vn -0.4513 0.2890 0.8443
vn -0.1374 -0.9565 0.2571
vn -0.4691 0.0975 0.8777
vn -0.0464 0.9951 0.0869
vn -0.0464 -0.9951 0.0869
vn -0.4691 -0.0975 0.8777
vn -0.1374 0.9565 0.2571
vn -0.3002 -0.8810 0.3658
vn -0.6073 0.2890 0.7400
vn -0.1850 -0.9565 0.2254
vn -0.6314 0.0975 0.7693
vn -0.0625 0.9951 0.0761
vn -0.0625 -0.9951 0.0761
vn -0.6314 -0.0975 0.7693
vn -0.1850 0.9565 0.2254
vn -0.6073 -0.2890 0.7400
vn -0.3002 0.8810 0.3658
vn -0.5601 -0.4696 0.6825
vn -0.4036 0.7715 0.4918
vn -0.4913 -0.6326 0.5987
vn -0.4913 0.6326 0.5987
vn -0.4036 -0.7715 0.4918
vn -0.5601 0.4696 0.6825
vn -0.6825 -0.4696 0.5601
vn -0.4918 0.7715 0.4036
vn -0.5987 -0.6326 0.4913
vn -0.5987 0.6326 0.4913
vn -0.4918 -0.7715 0.4036
vn -0.6825 0.4696 0.5601
vn -0.3658 -0.8810 0.3002
vn -0.7400 0.2890 0.6073
vn -0.2254 -0.9566 0.1850
vn -0.7693 0.0975 0.6314
vn -0.0761 0.9951 0.0625
vn -0.0761 -0.9951 0.0625
vn -0.7693 -0.0975 0.6314
vn -0.2254 0.9565 0.1850
vn -0.7400 -0.2890 0.6073
vn -0.3658 0.8810 0.3002
vn -0.2571 -0.9565 0.1374
vn -0.8777 0.0975 0.4691
vn -0.0869 0.9951 0.0464
vn -0.0869 -0.9951 0.0464
vn -0.8777 -0.0975 0.4691
vn -0.2571 0.9565 0.1374
vn -0.8443 -0.2890 0.4513
vn -0.4173 0.8810 0.2230
vn -0.7786 -0.4696 0.4162
vn -0.5611 0.7715 0.2999
vn -0.6831 -0.6326 0.3651
vn -0.6831 0.6326 0.3651
vn -0.5611 -0.7715 0.2999
vn -0.7786 0.4696 0.4162
vn -0.4173 -0.8810 0.2231
vn -0.8443 0.2890 0.4513
vn -0.6088 0.7715 0.1847
vn -0.7412 -0.6326 0.2248
vn -0.7412 0.6326 0.2248
vn -0.6088 -0.7715 0.1847
vn -0.8448 0.4696 0.2563
vn -0.4528 -0.8810 0.1374
vn -0.9161 0.2890 0.2779
vn -0.2790 -0.9565 0.0846
vn -0.9524 0.0975 0.2889
vn -0.0942 0.9951 0.0286
vn -0.0942 -0.9951 0.0286
vn -0.9524 -0.0975 0.2889
vn -0.2790 0.9565 0.0846
vn -0.9161 -0.2890 0.2779
vn -0.4528 0.8810 0.1374
vn -0.8448 -0.4696 0.2563
vn -0.9904 0.0975 0.0975
vn -0.0980 0.9951 0.0097
vn -0.0980 -0.9951 0.0097
vn -0.9904 -0.0975 0.0976
vn -0.2902 0.9565 0.0286
vn -0.9527 -0.2890 0.0938
vn -0.4709 0.8810 0.0464
vn -0.8786 -0.4696 0.0865
vn -0.6332 0.7715 0.0624
vn -0.7708 -0.6326 0.0759
vn -0.7708 0.6326 0.0759
vn -0.6332 -0.7715 0.0624
vn -0.8786 0.4696 0.0865
vn -0.4709 -0.8810 0.0464
vn -0.9527 0.2890 0.0938
vn -0.2902 -0.9565 0.0286
vn -0.7708 -0.6326 -0.0759
vn -0.7708 0.6326 -0.0759
vn -0.6332 -0.7715 -0.0624
vn -0.8786 0.4696 -0.0865
vn -0.4709 -0.8810 -0.0464
vn -0.9527 0.2890 -0.0938
vn -0.2902 -0.9565 -0.0286
vn -0.9904 0.0975 -0.0975
vn -0.0980 0.9951 -0.0097
vn -0.0980 -0.9951 -0.0097
vn -0.9904 -0.0975 -0.0976
vn -0.2902 0.9565 -0.0286
vn -0.9527 -0.2890 -0.0938
vn -0.4709 0.8810 -0.0464
vn -0.8786 -0.4696 -0.0865
vn -0.6332 0.7715 -0.0624
vn -0.0942 0.9951 -0.0286
vn -0.0942 -0.9951 -0.0286
vn -0.9524 -0.0975 -0.2889
vn -0.2790 0.9565 -0.0846
vn -0.9161 -0.2890 -0.2779
vn -0.4528 0.8810 -0.1374
vn -0.8448 -0.4696 -0.2563
vn -0.6088 0.7715 -0.1847
vn -0.7412 -0.6326 -0.2248
vn -0.7412 0.6326 -0.2248
vn -0.6088 -0.7715 -0.1847
vn -0.8448 0.4696 -0.2563
vn -0.4528 -0.8810 -0.1374
vn -0.9161 0.2890 -0.2779
vn -0.2790 -0.9565 -0.0846
vn -0.9524 0.0975 -0.2889
vn -0.6831 0.6326 -0.3651
vn -0.5611 -0.7715 -0.2999
vn -0.7786 0.4696 -0.4162
vn -0.4173 -0.8810 -0.2231
vn -0.8443 0.2890 -0.4513
vn -0.2571 -0.9565 -0.1374
vn -0.8777 0.0975 -0.4691
vn -0.0869 0.9951 -0.0464
vn -0.0869 -0.9951 -0.0464
vn -0.8777 -0.0975 -0.4691
vn -0.2571 0.9565 -0.1374
vn -0.8443 -0.2890 -0.4513
vn -0.4173 0.8810 -0.2231
vn -0.7786 -0.4696 -0.4162
vn -0.5611 0.7715 -0.2999
vn -0.6831 -0.6326 -0.3651
vn -0.7693 -0.0975 -0.6314
vn -0.2254 0.9565 -0.1850
vn -0.7400 -0.2890 -0.6073
vn -0.3658 0.8810 -0.3002
vn -0.6825 -0.4696 -0.5601
vn -0.4918 0.7715 -0.4036
vn -0.5987 -0.6326 -0.4913
vn -0.5987 0.6326 -0.4913
vn -0.4918 -0.7715 -0.4036
vn -0.6825 0.4696 -0.5601
vn -0.3658 -0.8810 -0.3002
vn -0.7400 0.2890 -0.6073
vn -0.2254 -0.9565 -0.1850
vn -0.7693 0.0975 -0.6314
vn -0.0761 0.9951 -0.0625
vn -0.0761 -0.9951 -0.0625
vn -0.4036 -0.7715 -0.4918
vn -0.5601 0.4696 -0.6825
vn -0.3002 -0.8810 -0.3658
vn -0.6073 0.2890 -0.7400
vn -0.1850 -0.9565 -0.2254
vn -0.6314 0.0975 -0.7693
vn -0.0625 0.9951 -0.0761
vn -0.0625 -0.9951 -0.0761
vn -0.6314 -0.0975 -0.7693
vn -0.1850 0.9565 -0.2254
vn -0.6073 -0.2890 -0.7400
vn -0.3002 0.8810 -0.3658
vn -0.5601 -0.4696 -0.6825
vn -0.4036 0.7715 -0.4918
vn -0.4913 -0.6326 -0.5987
vn -0.4913 0.6326 -0.5987
vn -0.4513 -0.2890 -0.8443
vn -0.2230 0.8810 -0.4173
vn -0.4162 -0.4696 -0.7786
vn -0.2999 0.7715 -0.5611
vn -0.3651 -0.6326 -0.6831
vn -0.3651 0.6326 -0.6831
vn -0.2999 -0.7715 -0.5611
vn -0.4162 0.4696 -0.7786
vn -0.2230 -0.8810 -0.4173
vn -0.4513 0.2890 -0.8443
vn -0.1374 -0.9565 -0.2571
vn -0.4691 0.0975 -0.8777
vn -0.0464 0.9951 -0.0869
vn -0.0464 -0.9951 -0.0869
vn -0.4691 -0.0975 -0.8777
vn -0.1374 0.9565 -0.2571
vn -0.1374 -0.8810 -0.4528
vn -0.2779 0.2890 -0.9161
vn -0.0846 -0.9565 -0.2790
vn -0.2889 0.0975 -0.9524
vn -0.0286 0.9951 -0.0942
vn -0.0286 -0.9951 -0.0942
vn -0.2889 -0.0975 -0.9524
vn -0.0846 0.9565 -0.2790
vn -0.2779 -0.2890 -0.9161
vn -0.1374 0.8810 -0.4528
vn -0.2563 -0.4696 -0.8448
vn -0.1847 0.7715 -0.6088
vn -0.2248 -0.6326 -0.7412
vn -0.2248 0.6326 -0.7412
vn -0.1847 -0.7715 -0.6088
vn -0.2563 0.4696 -0.8448
vn -0.0464 0.8810 -0.4709
vn -0.0865 -0.4696 -0.8786
vn -0.0624 0.7715 -0.6332
vn -0.0759 -0.6326 -0.7708
vn -0.0759 0.6326 -0.7708
vn -0.0624 -0.7715 -0.6332
vn -0.0865 0.4696 -0.8786
vn -0.0464 -0.8810 -0.4709
vn -0.0938 0.2890 -0.9527
vn -0.0286 -0.9565 -0.2902
vn -0.0976 0.0975 -0.9904
vn -0.0097 0.9951 -0.0980
vn -0.0097 -0.9951 -0.0980
vn -0.0976 -0.0975 -0.9904
vn -0.0286 0.9565 -0.2902
vn -0.0938 -0.2890 -0.9527
vn 0.0975 0.0976 -0.9904
vn 0.0975 -0.0975 -0.9904
vn 0.2231 -0.8810 -0.4173
vn 0.2230 0.8810 -0.4173
vn 0.2254 -0.9565 -0.1850
vn 0.4173 0.8810 0.2230
vn 0.4173 -0.8810 0.2231
vn 0.2231 -0.8810 0.4173
vn -0.0975 0.0975 0.9904
vn -0.0976 -0.0975 0.9904
vn -0.2231 0.8810 0.4173
vn -0.2231 -0.8810 0.4173
vn -0.2254 -0.9565 0.1850
vn -0.4173 -0.8810 0.2230
vn -0.9904 0.0975 0.0976
vn -0.9904 -0.0975 0.0975
vn -0.9904 0.0975 -0.0976
vn -0.9904 -0.0975 -0.0975
vt 0.750000 0.437500
vt 0.718750 0.375000
vt 0.750000 0.375000
vt 0.750000 0.812500
vt 0.718750 0.875000
vt 0.718750 0.812500
vt 0.718750 0.312500
vt 0.750000 0.312500
vt 0.750000 0.750000
vt 0.718750 0.750000
vt 0.718750 0.250000
vt 0.750000 0.250000
vt 0.750000 0.687500
vt 0.718750 0.687500
vt 0.718750 0.187500
vt 0.750000 0.187500
vt 0.750000 0.625000
vt 0.718750 0.625000
vt 0.718750 0.125000
vt 0.750000 0.125000
vt 0.750000 0.562500
vt 0.718750 0.562500
vt 0.718750 0.062500
vt 0.750000 0.062500
vt 0.718750 0.500000
vt 0.750000 0.500000
vt 0.750000 0.937500
vt 0.734375 1.000000
vt 0.718750 0.937500
vt 0.734375 0.000000
vt 0.718750 0.437500
vt 0.750000 0.875000
vt 0.703125 0.000000
vt 0.687500 0.062500
vt 0.687500 0.437500
vt 0.687500 0.875000
vt 0.687500 0.375000
vt 0.687500 0.812500
vt 0.687500 0.312500
vt 0.687500 0.750000
vt 0.687500 0.250000
vt 0.687500 0.687500
vt 0.687500 0.187500
vt 0.687500 0.625000
vt 0.687500 0.125000
vt 0.687500 0.562500
vt 0.687500 0.500000
vt 0.703125 1.000000
vt 0.687500 0.937500
vt 0.656250 0.250000
vt 0.656250 0.187500
vt 0.656250 0.625000
vt 0.656250 0.125000
vt 0.656250 0.562500
vt 0.656250 0.062500
vt 0.656250 0.500000
vt 0.671875 1.000000
vt 0.656250 0.937500
vt 0.671875 0.000000
vt 0.656250 0.437500
vt 0.656250 0.875000
vt 0.656250 0.375000
vt 0.656250 0.812500
vt 0.656250 0.312500
vt 0.656250 0.750000
vt 0.656250 0.687500
vt 0.625000 0.875000
vt 0.625000 0.375000
vt 0.625000 0.812500
vt 0.625000 0.312500
vt 0.625000 0.750000
vt 0.625000 0.250000
vt 0.625000 0.687500
vt 0.625000 0.187500
vt 0.625000 0.625000
vt 0.625000 0.125000
vt 0.625000 0.562500
vt 0.625000 0.062500
vt 0.625000 0.500000
vt 0.640625 1.000000
vt 0.625000 0.937500
vt 0.640625 0.000000
vt 0.625000 0.437500
vt 0.593750 0.625000
vt 0.593750 0.187500
vt 0.593750 0.125000
vt 0.593750 0.562500
vt 0.593750 0.062500
vt 0.593750 0.500000
vt 0.609375 1.000000
vt 0.593750 0.937500
vt 0.609375 0.000000
vt 0.593750 0.437500
vt 0.593750 0.875000
vt 0.593750 0.375000
vt 0.593750 0.812500
vt 0.593750 0.312500
vt 0.593750 0.750000
vt 0.593750 0.250000
vt 0.593750 0.687500
vt 0.562500 0.375000
vt 0.562500 0.812500
vt 0.562500 0.312500
vt 0.562500 0.750000
vt 0.562500 0.250000
vt 0.562500 0.687500
vt 0.562500 0.187500
vt 0.562500 0.625000
vt 0.562500 0.125000
vt 0.562500 0.562500
vt 0.562500 0.062500
vt 0.562500 0.500000
vt 0.578125 1.000000
vt 0.562500 0.937500
vt 0.578125 0.000000
vt 0.562500 0.437500
vt 0.562500 0.875000
vt 0.531250 0.187500
vt 0.531250 0.125000
vt 0.531250 0.625000
vt 0.531250 0.562500
vt 0.531250 0.062500
vt 0.531250 0.500000
vt 0.546875 1.000000
vt 0.531250 0.937500
vt 0.546875 0.000000
vt 0.531250 0.437500
vt 0.531250 0.875000
vt 0.531250 0.375000
vt 0.531250 0.812500
vt 0.531250 0.312500
vt 0.531250 0.750000
vt 0.531250 0.250000
vt 0.531250 0.687500
vt 0.500000 0.812500
vt 0.500000 0.375000
vt 0.500000 0.312500
vt 0.500000 0.750000
vt 0.500000 0.250000
vt 0.500000 0.687500
vt 0.500000 0.187500
vt 0.500000 0.625000
vt 0.500000 0.125000
vt 0.500000 0.562500
vt 0.500000 0.062500
vt 0.500000 0.500000
vt 0.515625 1.000000
vt 0.500000 0.937500
vt 0.515625 0.000000
vt 0.500000 0.437500
vt 0.500000 0.875000
vt 0.468750 0.625000
vt 0.468750 0.562500
vt 0.468750 0.062500
vt 0.468750 0.500000
vt 0.484375 1.000000
vt 0.468750 0.937500
vt 0.484375 0.000000
vt 0.468750 0.437500
vt 0.468750 0.875000
vt 0.468750 0.375000
vt 0.468750 0.812500
vt 0.468750 0.312500
vt 0.468750 0.750000
vt 0.468750 0.250000
vt 0.468750 0.687500
vt 0.468750 0.187500
vt 0.468750 0.125000
vt 0.437500 0.375000
vt 0.437500 0.312500
vt 0.437500 0.750000
vt 0.437500 0.250000
vt 0.437500 0.687500
vt 0.437500 0.187500
vt 0.437500 0.625000
vt 0.437500 0.125000
vt 0.437500 0.562500
vt 0.437500 0.062500
vt 0.437500 0.500000
vt 0.453125 1.000000
vt 0.437500 0.937500
vt 0.453125 0.000000
vt 0.437500 0.437500
vt 0.437500 0.875000
vt 0.437500 0.812500
vt 0.406250 0.062500
vt 0.406250 0.562500
vt 0.406250 0.500000
vt 0.421875 1.000000
vt 0.406250 0.937500
vt 0.421875 0.000000
vt 0.406250 0.437500
vt 0.406250 0.875000
vt 0.406250 0.375000
vt 0.406250 0.812500
vt 0.406250 0.312500
vt 0.406250 0.750000
vt 0.406250 0.250000
vt 0.406250 0.687500
vt 0.406250 0.187500
vt 0.406250 0.625000
vt 0.406250 0.125000
vt 0.375000 0.250000
vt 0.375000 0.750000
vt 0.375000 0.687500
vt 0.375000 0.187500
vt 0.375000 0.625000
vt 0.375000 0.125000
vt 0.375000 0.562500
vt 0.375000 0.062500
vt 0.375000 0.500000
vt 0.390625 1.000000
vt 0.375000 0.937500
vt 0.390625 0.000000
vt 0.375000 0.437500
vt 0.375000 0.875000
vt 0.375000 0.375000
vt 0.375000 0.812500
vt 0.375000 0.312500
vt 0.359375 1.000000
vt 0.343750 0.937500
vt 0.359375 0.000000
vt 0.343750 0.062500
vt 0.343750 0.437500
vt 0.343750 0.875000
vt 0.343750 0.375000
vt 0.343750 0.812500
vt 0.343750 0.312500
vt 0.343750 0.750000
vt 0.343750 0.250000
vt 0.343750 0.687500
vt 0.343750 0.187500
vt 0.343750 0.625000
vt 0.343750 0.125000
vt 0.343750 0.562500
vt 0.343750 0.500000
vt 0.312500 0.750000
vt 0.312500 0.687500
vt 0.312500 0.250000
vt 0.312500 0.187500
vt 0.312500 0.625000
vt 0.312500 0.125000
vt 0.312500 0.562500
vt 0.312500 0.062500
vt 0.312500 0.500000
vt 0.328125 1.000000
vt 0.312500 0.937500
vt 0.328125 0.000000
vt 0.312500 0.437500
vt 0.312500 0.875000
vt 0.312500 0.375000
vt 0.312500 0.812500
vt 0.312500 0.312500
vt 0.281250 0.437500
vt 0.281250 0.875000
vt 0.281250 0.375000
vt 0.281250 0.812500
vt 0.281250 0.312500
vt 0.281250 0.750000
vt 0.281250 0.250000
vt 0.281250 0.687500
vt 0.281250 0.187500
vt 0.281250 0.625000
vt 0.281250 0.125000
vt 0.281250 0.562500
vt 0.281250 0.062500
vt 0.281250 0.500000
vt 0.296875 1.000000
vt 0.281250 0.937500
vt 0.296875 0.000000
vt 0.250000 0.250000
vt 0.250000 0.187500
vt 0.250000 0.625000
vt 0.250000 0.125000
vt 0.250000 0.562500
vt 0.250000 0.062500
vt 0.250000 0.500000
vt 0.265625 1.000000
vt 0.250000 0.937500
vt 0.265625 0.000000
vt 0.250000 0.437500
vt 0.250000 0.875000
vt 0.250000 0.375000
vt 0.250000 0.812500
vt 0.250000 0.312500
vt 0.250000 0.750000
vt 0.250000 0.687500
vt 0.218750 0.875000
vt 0.218750 0.375000
vt 0.218750 0.812500
vt 0.218750 0.312500
vt 0.218750 0.750000
vt 0.218750 0.250000
vt 0.218750 0.687500
vt 0.218750 0.187500
vt 0.218750 0.625000
vt 0.218750 0.125000
vt 0.218750 0.562500
vt 0.218750 0.062500
vt 0.218750 0.500000
vt 0.234375 1.000000
vt 0.218750 0.937500
vt 0.234375 0.000000
vt 0.218750 0.437500
vt 0.187500 0.625000
vt 0.187500 0.125000
vt 0.187500 0.562500
vt 0.187500 0.062500
vt 0.187500 0.500000
vt 0.203125 1.000000
vt 0.187500 0.937500
vt 0.203125 0.000000
vt 0.187500 0.437500
vt 0.187500 0.875000
vt 0.187500 0.375000
vt 0.187500 0.812500
vt 0.187500 0.312500
vt 0.187500 0.750000
vt 0.187500 0.250000
vt 0.187500 0.687500
vt 0.187500 0.187500
vt 0.156250 0.375000
vt 0.156250 0.812500
vt 0.156250 0.312500
vt 0.156250 0.750000
vt 0.156250 0.250000
vt 0.156250 0.687500
vt 0.156250 0.187500
vt 0.156250 0.625000
vt 0.156250 0.125000
vt 0.156250 0.562500
vt 0.156250 0.062500
vt 0.156250 0.500000
vt 0.171875 1.000000
vt 0.156250 0.937500
vt 0.171875 0.000000
vt 0.156250 0.437500
vt 0.156250 0.875000
vt 0.125000 0.125000
vt 0.125000 0.625000
vt 0.125000 0.562500
vt 0.125000 0.062500
vt 0.125000 0.500000
vt 0.140625 1.000000
vt 0.125000 0.937500
vt 0.140625 0.000000
vt 0.125000 0.437500
vt 0.125000 0.875000
vt 0.125000 0.375000
vt 0.125000 0.812500
vt 0.125000 0.312500
vt 0.125000 0.750000
vt 0.125000 0.250000
vt 0.125000 0.687500
vt 0.125000 0.187500
vt 0.093750 0.375000
vt 0.093750 0.312500
vt 0.093750 0.750000
vt 0.093750 0.250000
vt 0.093750 0.687500
vt 0.093750 0.187500
vt 0.093750 0.625000
vt 0.093750 0.125000
vt 0.093750 0.562500
vt 0.093750 0.062500
vt 0.093750 0.500000
vt 0.109375 1.000000
vt 0.093750 0.937500
vt 0.109375 0.000000
vt 0.093750 0.437500
vt 0.093750 0.875000
vt 0.093750 0.812500
vt 0.062500 0.062500
vt 0.062500 0.562500
vt 0.062500 0.500000
vt 0.078125 1.000000
vt 0.062500 0.937500
vt 0.078125 0.000000
vt 0.062500 0.437500
vt 0.062500 0.875000
vt 0.062500 0.375000
vt 0.062500 0.812500
vt 0.062500 0.312500
vt 0.062500 0.750000
vt 0.062500 0.250000
vt 0.062500 0.687500
vt 0.062500 0.187500
vt 0.062500 0.625000
vt 0.062500 0.125000
vt 0.031250 0.750000
vt 0.031250 0.250000
vt 0.031250 0.687500
vt 0.031250 0.187500
vt 0.031250 0.625000
vt 0.031250 0.125000
vt 0.031250 0.562500
vt 0.031250 0.062500
vt 0.031250 0.500000
vt 0.046875 1.000000
vt 0.031250 0.937500
vt 0.046875 0.000000
vt 0.031250 0.437500
vt 0.031250 0.875000
vt 0.031250 0.375000
vt 0.031250 0.812500
vt 0.031250 0.312500
vt 0.000000 0.562500
vt 0.000000 0.500000
vt 0.015625 1.000000
vt 0.000000 0.937500
vt 0.015625 0.000000
vt 0.000000 0.062500
vt 0.000000 0.437500
vt 0.000000 0.875000
vt 0.000000 0.375000
vt 0.000000 0.812500
vt 0.000000 0.312500
vt 0.000000 0.750000
vt 0.000000 0.250000
vt 0.000000 0.687500
vt 0.000000 0.187500
vt 0.000000 0.625000
vt 0.000000 0.125000
vt 1.000000 0.312500
vt 0.968750 0.250000
vt 1.000000 0.250000
vt 1.000000 0.687500
vt 0.968750 0.750000
vt 0.968750 0.687500
vt 1.000000 0.187500
vt 0.968750 0.187500
vt 0.968750 0.625000
vt 1.000000 0.625000
vt 0.968750 0.125000
vt 1.000000 0.125000
vt 1.000000 0.562500
vt 0.968750 0.562500
vt 0.968750 0.062500
vt 1.000000 0.062500
vt 1.000000 0.500000
vt 0.968750 0.500000
vt 1.000000 0.937500
vt 0.984375 1.000000
vt 0.968750 0.937500
vt 0.984375 0.000000
vt 0.968750 0.437500
vt 1.000000 0.437500
vt 0.968750 0.875000
vt 1.000000 0.875000
vt 0.968750 0.375000
vt 1.000000 0.375000
vt 1.000000 0.812500
vt 0.968750 0.812500
vt 0.968750 0.312500
vt 1.000000 0.750000
vt 0.953125 1.000000
vt 0.937500 0.937500
vt 0.953125 0.000000
vt 0.937500 0.062500
vt 0.937500 0.437500
vt 0.937500 0.875000
vt 0.937500 0.375000
vt 0.937500 0.812500
vt 0.937500 0.312500
vt 0.937500 0.750000
vt 0.937500 0.250000
vt 0.937500 0.687500
vt 0.937500 0.187500
vt 0.937500 0.625000
vt 0.937500 0.125000
vt 0.937500 0.562500
vt 0.937500 0.500000
vt 0.906250 0.750000
vt 0.906250 0.687500
vt 0.906250 0.250000
vt 0.906250 0.187500
vt 0.906250 0.625000
vt 0.906250 0.125000
vt 0.906250 0.562500
vt 0.906250 0.062500
vt 0.906250 0.500000
vt 0.921875 1.000000
vt 0.906250 0.937500
vt 0.921875 0.000000
vt 0.906250 0.437500
vt 0.906250 0.875000
vt 0.906250 0.375000
vt 0.906250 0.812500
vt 0.906250 0.312500
vt 0.875000 0.437500
vt 0.875000 0.875000
vt 0.875000 0.375000
vt 0.875000 0.812500
vt 0.875000 0.312500
vt 0.875000 0.750000
vt 0.875000 0.250000
vt 0.875000 0.687500
vt 0.875000 0.187500
vt 0.875000 0.625000
vt 0.875000 0.125000
vt 0.875000 0.562500
vt 0.875000 0.062500
vt 0.875000 0.500000
vt 0.890625 1.000000
vt 0.875000 0.937500
vt 0.890625 0.000000
vt 0.843750 0.250000
vt 0.843750 0.187500
vt 0.843750 0.625000
vt 0.843750 0.125000
vt 0.843750 0.562500
vt 0.843750 0.062500
vt 0.843750 0.500000
vt 0.859375 1.000000
vt 0.843750 0.937500
vt 0.859375 0.000000
vt 0.843750 0.437500
vt 0.843750 0.875000
vt 0.843750 0.375000
vt 0.843750 0.812500
vt 0.843750 0.312500
vt 0.843750 0.750000
vt 0.843750 0.687500
vt 0.812500 0.375000
vt 0.812500 0.812500
vt 0.812500 0.312500
vt 0.812500 0.750000
vt 0.812500 0.250000
vt 0.812500 0.687500
vt 0.812500 0.187500
vt 0.812500 0.625000
vt 0.812500 0.125000
vt 0.812500 0.562500
vt 0.812500 0.062500
vt 0.812500 0.500000
vt 0.828125 1.000000
vt 0.812500 0.937500
vt 0.828125 0.000000
vt 0.812500 0.437500
vt 0.812500 0.875000
vt 0.781250 0.125000
vt 0.781250 0.625000
vt 0.781250 0.562500
vt 0.781250 0.062500
vt 0.781250 0.500000
vt 0.796875 1.000000
vt 0.781250 0.937500
vt 0.796875 0.000000
vt 0.781250 0.437500
vt 0.781250 0.875000
vt 0.781250 0.375000
vt 0.781250 0.812500
vt 0.781250 0.312500
vt 0.781250 0.750000
vt 0.781250 0.250000
vt 0.781250 0.687500
vt 0.781250 0.187500
vt 0.765625 1.000000
vt 0.765625 0.000000
s 0
f 6/1/1 18/2/1 478/3/1
f 2/4/2 10/5/2 11/6/2
f 478/3/3 19/7/3 7/8/3
f 476/9/4 11/6/4 12/10/4
f 7/8/5 20/11/5 479/12/5
f 3/13/6 12/10/6 13/14/6
f 479/12/7 21/15/7 480/16/7
f 477/17/8 13/14/8 14/18/8
f 480/16/9 22/19/9 481/20/9
f 4/21/10 14/18/10 15/22/10
f 481/20/11 23/23/11 482/24/11
f 4/21/12 16/25/12 5/26/12
f 474/27/13 1/28/13 9/29/13
f 8/30/14 482/24/14 23/23/14
f 5/26/15 17/31/15 6/1/15
f 475/32/16 9/29/16 10/5/16
f 8/33/17 23/23/17 38/34/17
f 16/25/18 32/35/18 17/31/18
f 9/29/19 25/36/19 10/5/19
f 17/31/20 33/37/20 18/2/20
f 10/5/21 26/38/21 11/6/21
f 18/2/22 34/39/22 19/7/22
f 11/6/23 27/40/23 12/10/23
f 19/7/24 35/41/24 20/11/24
f 12/10/25 28/42/25 13/14/25
f 21/15/26 35/41/26 36/43/26
f 13/14/27 29/44/27 14/18/27
f 22/19/28 36/43/28 37/45/28
f 15/22/29 29/44/29 30/46/29
f 22/19/30 38/34/30 23/23/30
f 15/22/31 31/47/31 16/25/31
f 9/29/32 1/48/32 24/49/32
f 36/43/33 50/50/33 51/51/33
f 28/42/34 44/52/34 29/44/34
f 36/43/35 52/53/35 37/45/35
f 29/44/36 45/54/36 30/46/36
f 37/45/37 53/55/37 38/34/37
f 30/46/38 46/56/38 31/47/38
f 24/49/39 1/57/39 39/58/39
f 8/59/40 38/34/40 53/55/40
f 32/35/41 46/56/41 47/60/41
f 24/49/42 40/61/42 25/36/42
f 32/35/43 48/62/43 33/37/43
f 25/36/44 41/63/44 26/38/44
f 34/39/45 48/62/45 49/64/45
f 26/38/46 42/65/46 27/40/46
f 35/41/47 49/64/47 50/50/47
f 27/40/48 43/66/48 28/42/48
f 39/58/49 55/67/49 40/61/49
f 47/60/50 63/68/50 48/62/50
f 40/61/51 56/69/51 41/63/51
f 49/64/52 63/68/52 64/70/52
f 41/63/53 57/71/53 42/65/53
f 49/64/54 65/72/54 50/50/54
f 42/65/55 58/73/55 43/66/55
f 50/50/56 66/74/56 51/51/56
f 43/66/57 59/75/57 44/52/57
f 51/51/58 67/76/58 52/53/58
f 45/54/59 59/75/59 60/77/59
f 52/53/60 68/78/60 53/55/60
f 46/56/61 60/77/61 61/79/61
f 39/58/62 1/80/62 54/81/62
f 8/82/63 53/55/63 68/78/63
f 46/56/64 62/83/64 47/60/64
f 58/73/65 74/84/65 59/75/65
f 67/76/66 81/85/66 82/86/66
f 60/77/67 74/84/67 75/87/67
f 67/76/68 83/88/68 68/78/68
f 61/79/69 75/87/69 76/89/69
f 54/81/70 1/90/70 69/91/70
f 8/92/71 68/78/71 83/88/71
f 61/79/72 77/93/72 62/83/72
f 54/81/73 70/94/73 55/67/73
f 62/83/74 78/95/74 63/68/74
f 55/67/75 71/96/75 56/69/75
f 64/70/76 78/95/76 79/97/76
f 56/69/77 72/98/77 57/71/77
f 64/70/78 80/99/78 65/72/78
f 58/73/79 72/98/79 73/100/79
f 65/72/80 81/85/80 66/74/80
f 77/93/81 93/101/81 78/95/81
f 70/94/82 86/102/82 71/96/82
f 79/97/83 93/101/83 94/103/83
f 71/96/84 87/104/84 72/98/84
f 79/97/85 95/105/85 80/99/85
f 73/100/86 87/104/86 88/106/86
f 80/99/87 96/107/87 81/85/87
f 73/100/88 89/108/88 74/84/88
f 81/85/89 97/109/89 82/86/89
f 75/87/90 89/108/90 90/110/90
f 83/88/91 97/109/91 98/111/91
f 76/89/92 90/110/92 91/112/92
f 69/91/93 1/113/93 84/114/93
f 8/115/94 83/88/94 98/111/94
f 76/89/95 92/116/95 77/93/95
f 69/91/96 85/117/96 70/94/96
f 97/109/97 111/118/97 112/119/97
f 90/110/98 104/120/98 105/121/98
f 97/109/99 113/122/99 98/111/99
f 91/112/100 105/121/100 106/123/100
f 84/114/101 1/124/101 99/125/101
f 8/126/102 98/111/102 113/122/102
f 91/112/103 107/127/103 92/116/103
f 85/117/104 99/125/104 100/128/104
f 92/116/105 108/129/105 93/101/105
f 85/117/106 101/130/106 86/102/106
f 94/103/107 108/129/107 109/131/107
f 86/102/108 102/132/108 87/104/108
f 94/103/109 110/133/109 95/105/109
f 88/106/110 102/132/110 103/134/110
f 96/107/111 110/133/111 111/118/111
f 88/106/112 104/120/112 89/108/112
f 100/128/113 116/135/113 101/130/113
f 109/131/114 123/136/114 124/137/114
f 101/130/115 117/138/115 102/132/115
f 109/131/116 125/139/116 110/133/116
f 103/134/117 117/138/117 118/140/117
f 111/118/118 125/139/118 126/141/118
f 103/134/119 119/142/119 104/120/119
f 111/118/120 127/143/120 112/119/120
f 105/121/121 119/142/121 120/144/121
f 112/119/122 128/145/122 113/122/122
f 106/123/123 120/144/123 121/146/123
f 99/125/124 1/147/124 114/148/124
f 8/149/125 113/122/125 128/145/125
f 106/123/126 122/150/126 107/127/126
f 100/128/127 114/148/127 115/151/127
f 107/127/128 123/136/128 108/129/128
f 120/144/129 134/152/129 135/153/129
f 127/143/130 143/154/130 128/145/130
f 121/146/131 135/153/131 136/155/131
f 114/148/132 1/156/132 129/157/132
f 8/158/133 128/145/133 143/154/133
f 121/146/134 137/159/134 122/150/134
f 114/148/135 130/160/135 115/151/135
f 122/150/136 138/161/136 123/136/136
f 115/151/137 131/162/137 116/135/137
f 124/137/138 138/161/138 139/163/138
f 116/135/139 132/164/139 117/138/139
f 124/137/140 140/165/140 125/139/140
f 118/140/141 132/164/141 133/166/141
f 126/141/142 140/165/142 141/167/142
f 118/140/143 134/152/143 119/142/143
f 126/141/144 142/168/144 127/143/144
f 139/163/145 153/169/145 154/170/145
f 131/162/146 147/171/146 132/164/146
f 139/163/147 155/172/147 140/165/147
f 133/166/148 147/171/148 148/173/148
f 141/167/149 155/172/149 156/174/149
f 133/166/150 149/175/150 134/152/150
f 141/167/151 157/176/151 142/168/151
f 135/153/152 149/175/152 150/177/152
f 143/154/153 157/176/153 158/178/153
f 136/155/154 150/177/154 151/179/154
f 129/157/155 1/180/155 144/181/155
f 8/182/156 143/154/156 158/178/156
f 136/155/157 152/183/157 137/159/157
f 129/157/158 145/184/158 130/160/158
f 137/159/159 153/169/159 138/161/159
f 131/162/160 145/184/160 146/185/160
f 157/176/161 173/186/161 158/178/161
f 151/179/162 165/187/162 166/188/162
f 144/181/163 1/189/163 159/190/163
f 8/191/164 158/178/164 173/186/164
f 151/179/165 167/192/165 152/183/165
f 144/181/166 160/193/166 145/184/166
f 152/183/167 168/194/167 153/169/167
f 146/185/168 160/193/168 161/195/168
f 154/170/169 168/194/169 169/196/169
f 146/185/170 162/197/170 147/171/170
f 154/170/171 170/198/171 155/172/171
f 148/173/172 162/197/172 163/199/172
f 156/174/173 170/198/173 171/200/173
f 148/173/174 164/201/174 149/175/174
f 156/174/175 172/202/175 157/176/175
f 150/177/176 164/201/176 165/187/176
f 169/196/177 185/203/177 170/198/177
f 163/199/178 177/204/178 178/205/178
f 170/198/179 186/206/179 171/200/179
f 163/199/180 179/207/180 164/201/180
f 172/202/181 186/206/181 187/208/181
f 165/187/182 179/207/182 180/209/182
f 173/186/183 187/208/183 188/210/183
f 166/188/184 180/209/184 181/211/184
f 159/190/185 1/212/185 174/213/185
f 8/214/186 173/186/186 188/210/186
f 166/188/187 182/215/187 167/192/187
f 159/190/188 175/216/188 160/193/188
f 167/192/189 183/217/189 168/194/189
f 160/193/190 176/218/190 161/195/190
f 169/196/191 183/217/191 184/219/191
f 161/195/192 177/204/192 162/197/192
f 174/213/193 1/220/193 189/221/193
f 8/222/194 188/210/194 203/223/194
f 181/211/195 197/224/195 182/215/195
f 175/216/196 189/221/196 190/225/196
f 182/215/197 198/226/197 183/217/197
f 176/218/198 190/225/198 191/227/198
f 184/219/199 198/226/199 199/228/199
f 176/218/200 192/229/200 177/204/200
f 184/219/201 200/230/201 185/203/201
f 178/205/202 192/229/202 193/231/202
f 186/206/203 200/230/203 201/232/203
f 178/205/204 194/233/204 179/207/204
f 186/206/205 202/234/205 187/208/205
f 180/209/206 194/233/206 195/235/206
f 187/208/207 203/223/207 188/210/207
f 181/211/208 195/235/208 196/236/208
f 193/231/209 207/237/209 208/238/209
f 201/232/210 215/239/210 216/240/210
f 193/231/211 209/241/211 194/233/211
f 201/232/212 217/242/212 202/234/212
f 195/235/213 209/241/213 210/243/213
f 202/234/214 218/244/214 203/223/214
f 196/236/215 210/243/215 211/245/215
f 189/221/216 1/246/216 204/247/216
f 8/248/217 203/223/217 218/244/217
f 196/236/218 212/249/218 197/224/218
f 189/221/219 205/250/219 190/225/219
f 197/224/220 213/251/220 198/226/220
f 190/225/221 206/252/221 191/227/221
f 199/228/222 213/251/222 214/253/222
f 191/227/223 207/237/223 192/229/223
f 199/228/224 215/239/224 200/230/224
f 211/245/225 227/254/225 212/249/225
f 204/247/226 220/255/226 205/250/226
f 212/249/227 228/256/227 213/251/227
f 205/250/228 221/257/228 206/252/228
f 214/253/229 228/256/229 229/258/229
f 206/252/230 222/259/230 207/237/230
f 214/253/231 230/260/231 215/239/231
f 208/238/232 222/259/232 223/261/232
f 216/240/233 230/260/233 231/262/233
f 208/238/234 224/263/234 209/241/234
f 216/240/235 232/264/235 217/242/235
f 210/243/236 224/263/236 225/265/236
f 217/242/237 233/266/237 218/244/237
f 211/245/238 225/265/238 226/267/238
f 204/247/239 1/268/239 219/269/239
f 8/270/240 218/244/240 233/266/240
f 231/262/241 245/271/241 246/272/241
f 223/261/242 239/273/242 224/263/242
f 231/262/243 247/274/243 232/264/243
f 225/265/244 239/273/244 240/275/244
f 233/266/245 247/274/245 248/276/245
f 226/267/246 240/275/246 241/277/246
f 219/269/247 1/278/247 234/279/247
f 8/280/248 233/266/248 248/276/248
f 226/267/249 242/281/249 227/254/249
f 219/269/250 235/282/250 220/255/250
f 227/254/251 243/283/251 228/256/251
f 221/257/252 235/282/252 236/284/252
f 229/258/253 243/283/253 244/285/253
f 221/257/254 237/286/254 222/259/254
f 229/258/255 245/271/255 230/260/255
f 223/261/256 237/286/256 238/287/256
f 234/279/257 250/288/257 235/282/257
f 242/281/258 258/289/258 243/283/258
f 235/282/259 251/290/259 236/284/259
f 244/285/260 258/289/260 259/291/260
f 236/284/261 252/292/261 237/286/261
f 244/285/262 260/293/262 245/271/262
f 238/287/263 252/292/263 253/294/263
f 246/272/264 260/293/264 261/295/264
f 238/287/265 254/296/265 239/273/265
f 246/272/266 262/297/266 247/274/266
f 240/275/267 254/296/267 255/298/267
f 247/274/268 263/299/268 248/276/268
f 241/277/269 255/298/269 256/300/269
f 234/279/270 1/301/270 249/302/270
f 8/303/271 248/276/271 263/299/271
f 241/277/272 257/304/272 242/281/272
f 253/294/273 269/305/273 254/296/273
f 261/295/274 277/306/274 262/297/274
f 255/298/275 269/305/275 270/307/275
f 262/297/276 278/308/276 263/299/276
f 256/300/277 270/307/277 271/309/277
f 249/302/278 1/310/278 264/311/278
f 8/312/279 263/299/279 278/308/279
f 256/300/280 272/313/280 257/304/280
f 250/288/281 264/311/281 265/314/281
f 257/304/282 273/315/282 258/289/282
f 250/288/283 266/316/283 251/290/283
f 259/291/284 273/315/284 274/317/284
f 251/290/285 267/318/285 252/292/285
f 259/291/286 275/319/286 260/293/286
f 253/294/287 267/318/287 268/320/287
f 261/295/288 275/319/288 276/321/288
f 272/313/289 288/322/289 273/315/289
f 265/314/290 281/323/290 266/316/290
f 274/317/291 288/322/291 289/324/291
f 266/316/292 282/325/292 267/318/292
f 274/317/293 290/326/293 275/319/293
f 268/320/294 282/325/294 283/327/294
f 276/321/295 290/326/295 291/328/295
f 268/320/296 284/329/296 269/305/296
f 276/321/297 292/330/297 277/306/297
f 270/307/298 284/329/298 285/331/298
f 278/308/299 292/330/299 293/332/299
f 271/309/300 285/331/300 286/333/300
f 264/311/301 1/334/301 279/335/301
f 8/336/302 278/308/302 293/332/302
f 271/309/303 287/337/303 272/313/303
f 265/314/304 279/335/304 280/338/304
f 291/328/305 307/339/305 292/330/305
f 285/331/306 299/340/306 300/341/306
f 293/332/307 307/339/307 308/342/307
f 286/333/308 300/341/308 301/343/308
f 279/335/309 1/344/309 294/345/309
f 8/346/310 293/332/310 308/342/310
f 286/333/311 302/347/311 287/337/311
f 279/335/312 295/348/312 280/338/312
f 287/337/313 303/349/313 288/322/313
f 280/338/314 296/350/314 281/323/314
f 289/324/315 303/349/315 304/351/315
f 281/323/316 297/352/316 282/325/316
f 289/324/317 305/353/317 290/326/317
f 283/327/318 297/352/318 298/354/318
f 291/328/319 305/353/319 306/355/319
f 283/327/320 299/340/320 284/329/320
f 304/351/321 318/356/321 319/357/321
f 296/350/322 312/358/322 297/352/322
f 304/351/323 320/359/323 305/353/323
f 298/354/324 312/358/324 313/360/324
f 306/355/325 320/359/325 321/361/325
f 298/354/326 314/362/326 299/340/326
f 306/355/327 322/363/327 307/339/327
f 300/341/328 314/362/328 315/364/328
f 307/339/329 323/365/329 308/342/329
f 301/343/330 315/364/330 316/366/330
f 294/345/331 1/367/331 309/368/331
f 8/369/332 308/342/332 323/365/332
f 301/343/333 317/370/333 302/347/333
f 294/345/334 310/371/334 295/348/334
f 302/347/335 318/356/335 303/349/335
f 295/348/336 311/372/336 296/350/336
f 322/363/337 338/373/337 323/365/337
f 316/366/338 330/374/338 331/375/338
f 309/368/339 1/376/339 324/377/339
f 8/378/340 323/365/340 338/373/340
f 316/366/341 332/379/341 317/370/341
f 309/368/342 325/380/342 310/371/342
f 317/370/343 333/381/343 318/356/343
f 310/371/344 326/382/344 311/372/344
f 319/357/345 333/381/345 334/383/345
f 311/372/346 327/384/346 312/358/346
f 319/357/347 335/385/347 320/359/347
f 312/358/348 328/386/348 313/360/348
f 321/361/349 335/385/349 336/387/349
f 313/360/350 329/388/350 314/362/350
f 321/361/351 337/389/351 322/363/351
f 315/364/352 329/388/352 330/374/352
f 326/382/353 342/390/353 327/384/353
f 334/383/354 350/391/354 335/385/354
f 328/386/355 342/390/355 343/392/355
f 336/387/356 350/391/356 351/393/356
f 328/386/357 344/394/357 329/388/357
f 336/387/358 352/395/358 337/389/358
f 330/374/359 344/394/359 345/396/359
f 337/389/360 353/397/360 338/373/360
f 331/375/361 345/396/361 346/398/361
f 324/377/362 1/399/362 339/400/362
f 8/401/363 338/373/363 353/397/363
f 331/375/364 347/402/364 332/379/364
f 324/377/365 340/403/365 325/380/365
f 332/379/366 348/404/366 333/381/366
f 325/380/367 341/405/367 326/382/367
f 334/383/368 348/404/368 349/406/368
f 346/398/369 360/407/369 361/408/369
f 339/400/370 1/409/370 354/410/370
f 8/411/371 353/397/371 368/412/371
f 346/398/372 362/413/372 347/402/372
f 339/400/373 355/414/373 340/403/373
f 347/402/374 363/415/374 348/404/374
f 341/405/375 355/414/375 356/416/375
f 349/406/376 363/415/376 364/417/376
f 341/405/377 357/418/377 342/390/377
f 349/406/378 365/419/378 350/391/378
f 343/392/379 357/418/379 358/420/379
f 351/393/380 365/419/380 366/421/380
f 343/392/381 359/422/381 344/394/381
f 351/393/382 367/423/382 352/395/382
f 345/396/383 359/422/383 360/407/383
f 352/395/384 368/412/384 353/397/384
f 364/424/385 380/425/385 365/426/385
f 358/427/386 372/428/386 373/429/386
f 366/430/387 380/425/387 381/431/387
f 358/427/388 374/432/388 359/433/388
f 366/430/389 382/434/389 367/435/389
f 360/436/390 374/432/390 375/437/390
f 367/435/391 383/438/391 368/439/391
f 361/440/392 375/437/392 376/441/392
f 354/442/393 1/443/393 369/444/393
f 8/445/394 368/439/394 383/438/394
f 361/440/395 377/446/395 362/447/395
f 354/442/396 370/448/396 355/449/396
f 362/447/397 378/450/397 363/451/397
f 356/452/398 370/448/398 371/453/398
f 364/424/399 378/450/399 379/454/399
f 356/452/400 372/428/400 357/455/400
f 369/444/401 1/456/401 384/457/401
f 8/458/402 383/438/402 398/459/402
f 376/441/403 392/460/403 377/446/403
f 369/444/404 385/461/404 370/448/404
f 377/446/405 393/462/405 378/450/405
f 371/453/406 385/461/406 386/463/406
f 379/454/407 393/462/407 394/464/407
f 371/453/408 387/465/408 372/428/408
f 379/454/409 395/466/409 380/425/409
f 373/429/410 387/465/410 388/467/410
f 381/431/411 395/466/411 396/468/411
f 373/429/412 389/469/412 374/432/412
f 381/431/413 397/470/413 382/434/413
f 375/437/414 389/469/414 390/471/414
f 382/434/415 398/459/415 383/438/415
f 376/441/416 390/471/416 391/472/416
f 388/467/417 402/473/417 403/474/417
f 396/468/418 410/475/418 411/476/418
f 388/467/419 404/477/419 389/469/419
f 397/470/420 411/476/420 412/478/420
f 390/471/421 404/477/421 405/479/421
f 397/470/422 413/480/422 398/459/422
f 391/472/423 405/479/423 406/481/423
f 384/457/424 1/482/424 399/483/424
f 8/484/425 398/459/425 413/480/425
f 391/472/426 407/485/426 392/460/426
f 385/461/427 399/483/427 400/486/427
f 392/460/428 408/487/428 393/462/428
f 385/461/429 401/488/429 386/463/429
f 394/464/430 408/487/430 409/489/430
f 386/463/431 402/473/431 387/465/431
f 394/464/432 410/475/432 395/466/432
f 406/481/433 422/490/433 407/485/433
f 399/483/434 415/491/434 400/486/434
f 407/485/435 423/492/435 408/487/435
f 401/488/436 415/491/436 416/493/436
f 409/489/437 423/492/437 424/494/437
f 401/488/438 417/495/438 402/473/438
f 409/489/439 425/496/439 410/475/439
f 403/474/440 417/495/440 418/497/440
f 411/476/441 425/496/441 426/498/441
f 403/474/442 419/499/442 404/477/442
f 411/476/443 427/500/443 412/478/443
f 405/479/444 419/499/444 420/501/444
f 412/478/445 428/502/445 413/480/445
f 406/481/446 420/501/446 421/503/446
f 399/483/447 1/504/447 414/505/447
f 8/506/448 413/480/448 428/502/448
f 426/498/449 440/507/449 441/508/449
f 418/497/450 434/509/450 419/499/450
f 426/498/451 442/510/451 427/500/451
f 420/501/452 434/509/452 435/511/452
f 427/500/453 443/512/453 428/502/453
f 421/503/454 435/511/454 436/513/454
f 414/505/455 1/514/455 429/515/455
f 8/516/456 428/502/456 443/512/456
f 421/503/457 437/517/457 422/490/457
f 414/505/458 430/518/458 415/491/458
f 422/490/459 438/519/459 423/492/459
f 416/493/460 430/518/460 431/520/460
f 424/494/461 438/519/461 439/521/461
f 416/493/462 432/522/462 417/495/462
f 424/494/463 440/507/463 425/496/463
f 418/497/464 432/522/464 433/523/464
f 437/517/465 453/524/465 438/519/465
f 430/518/466 446/525/466 431/520/466
f 439/521/467 453/524/467 454/526/467
f 431/520/468 447/527/468 432/522/468
f 439/521/469 455/528/469 440/507/469
f 433/523/470 447/527/470 448/529/470
f 441/508/471 455/528/471 456/530/471
f 433/523/472 449/531/472 434/509/472
f 441/508/473 457/532/473 442/510/473
f 435/511/474 449/531/474 450/533/474
f 442/510/475 458/534/475 443/512/475
f 436/513/476 450/533/476 451/535/476
f 429/515/477 1/536/477 444/537/477
f 8/538/478 443/512/478 458/534/478
f 436/513/479 452/539/479 437/517/479
f 430/518/480 444/537/480 445/540/480
f 456/530/481 472/541/481 457/532/481
f 450/533/482 464/542/482 465/543/482
f 458/534/483 472/541/483 473/544/483
f 451/535/484 465/543/484 466/545/484
f 444/537/485 1/546/485 459/547/485
f 8/548/486 458/534/486 473/544/486
f 451/535/487 467/549/487 452/539/487
f 444/537/488 460/550/488 445/540/488
f 452/539/489 468/551/489 453/524/489
f 446/525/490 460/550/490 461/552/490
f 454/526/491 468/551/491 469/553/491
f 446/525/492 462/554/492 447/527/492
f 454/526/493 470/555/493 455/528/493
f 448/529/494 462/554/494 463/556/494
f 456/530/495 470/555/495 471/557/495
f 448/529/496 464/542/496 449/531/496
f 461/552/497 475/32/497 2/4/497
f 468/551/498 7/8/498 469/553/498
f 462/554/499 2/4/499 476/9/499
f 469/553/500 479/12/500 470/555/500
f 463/556/501 476/9/501 3/13/501
f 471/557/502 479/12/502 480/16/502
f 464/542/503 3/13/503 477/17/503
f 471/557/504 481/20/504 472/541/504
f 465/543/505 477/17/505 4/21/505
f 472/541/506 482/24/506 473/544/506
f 466/545/507 4/21/507 5/26/507
f 459/547/508 1/558/508 474/27/508
f 8/559/509 473/544/509 482/24/509
f 466/545/510 6/1/510 467/549/510
f 460/550/511 474/27/511 475/32/511
f 467/549/512 478/3/512 468/551/512
f 6/1/1 17/31/1 18/2/1
f 2/4/2 475/32/2 10/5/2
f 478/3/3 18/2/3 19/7/3
f 476/9/4 2/4/4 11/6/4
f 7/8/5 19/7/5 20/11/5
f 3/13/6 476/9/6 12/10/6
f 479/12/7 20/11/7 21/15/7
f 477/17/8 3/13/8 13/14/8
f 480/16/9 21/15/9 22/19/9
f 4/21/10 477/17/10 14/18/10
f 481/20/11 22/19/11 23/23/11
f 4/21/513 15/22/513 16/25/513
f 5/26/514 16/25/514 17/31/514
f 475/32/16 474/27/16 9/29/16
f 16/25/18 31/47/18 32/35/18
f 9/29/19 24/49/19 25/36/19
f 17/31/20 32/35/20 33/37/20
f 10/5/21 25/36/21 26/38/21
f 18/2/22 33/37/22 34/39/22
f 11/6/23 26/38/23 27/40/23
f 19/7/24 34/39/24 35/41/24
f 12/10/25 27/40/25 28/42/25
f 21/15/26 20/11/26 35/41/26
f 13/14/27 28/42/27 29/44/27
f 22/19/28 21/15/28 36/43/28
f 15/22/29 14/18/29 29/44/29
f 22/19/30 37/45/30 38/34/30
f 15/22/31 30/46/31 31/47/31
f 36/43/33 35/41/33 50/50/33
f 28/42/34 43/66/34 44/52/34
f 36/43/515 51/51/515 52/53/515
f 29/44/36 44/52/36 45/54/36
f 37/45/37 52/53/37 53/55/37
f 30/46/38 45/54/38 46/56/38
f 32/35/41 31/47/41 46/56/41
f 24/49/42 39/58/42 40/61/42
f 32/35/43 47/60/43 48/62/43
f 25/36/516 40/61/516 41/63/516
f 34/39/45 33/37/45 48/62/45
f 26/38/46 41/63/46 42/65/46
f 35/41/47 34/39/47 49/64/47
f 27/40/48 42/65/48 43/66/48
f 39/58/49 54/81/49 55/67/49
f 47/60/50 62/83/50 63/68/50
f 40/61/51 55/67/51 56/69/51
f 49/64/52 48/62/52 63/68/52
f 41/63/53 56/69/53 57/71/53
f 49/64/54 64/70/54 65/72/54
f 42/65/55 57/71/55 58/73/55
f 50/50/56 65/72/56 66/74/56
f 43/66/57 58/73/57 59/75/57
f 51/51/58 66/74/58 67/76/58
f 45/54/59 44/52/59 59/75/59
f 52/53/60 67/76/60 68/78/60
f 46/56/61 45/54/61 60/77/61
f 46/56/64 61/79/64 62/83/64
f 58/73/65 73/100/65 74/84/65
f 67/76/66 66/74/66 81/85/66
f 60/77/67 59/75/67 74/84/67
f 67/76/517 82/86/517 83/88/517
f 61/79/69 60/77/69 75/87/69
f 61/79/72 76/89/72 77/93/72
f 54/81/73 69/91/73 70/94/73
f 62/83/74 77/93/74 78/95/74
f 55/67/75 70/94/75 71/96/75
f 64/70/76 63/68/76 78/95/76
f 56/69/77 71/96/77 72/98/77
f 64/70/78 79/97/78 80/99/78
f 58/73/79 57/71/79 72/98/79
f 65/72/80 80/99/80 81/85/80
f 77/93/81 92/116/81 93/101/81
f 70/94/82 85/117/82 86/102/82
f 79/97/83 78/95/83 93/101/83
f 71/96/84 86/102/84 87/104/84
f 79/97/85 94/103/85 95/105/85
f 73/100/86 72/98/86 87/104/86
f 80/99/87 95/105/87 96/107/87
f 73/100/88 88/106/88 89/108/88
f 81/85/89 96/107/89 97/109/89
f 75/87/90 74/84/90 89/108/90
f 83/88/91 82/86/91 97/109/91
f 76/89/92 75/87/92 90/110/92
f 76/89/95 91/112/95 92/116/95
f 69/91/96 84/114/96 85/117/96
f 97/109/97 96/107/97 111/118/97
f 90/110/98 89/108/98 104/120/98
f 97/109/99 112/119/99 113/122/99
f 91/112/100 90/110/100 105/121/100
f 91/112/103 106/123/103 107/127/103
f 85/117/104 84/114/104 99/125/104
f 92/116/105 107/127/105 108/129/105
f 85/117/106 100/128/106 101/130/106
f 94/103/107 93/101/107 108/129/107
f 86/102/108 101/130/108 102/132/108
f 94/103/109 109/131/109 110/133/109
f 88/106/110 87/104/110 102/132/110
f 96/107/111 95/105/111 110/133/111
f 88/106/112 103/134/112 104/120/112
f 100/128/113 115/151/113 116/135/113
f 109/131/114 108/129/114 123/136/114
f 101/130/115 116/135/115 117/138/115
f 109/131/116 124/137/116 125/139/116
f 103/134/117 102/132/117 117/138/117
f 111/118/118 110/133/118 125/139/118
f 103/134/119 118/140/119 119/142/119
f 111/118/120 126/141/120 127/143/120
f 105/121/121 104/120/121 119/142/121
f 112/119/122 127/143/122 128/145/122
f 106/123/123 105/121/123 120/144/123
f 106/123/126 121/146/126 122/150/126
f 100/128/127 99/125/127 114/148/127
f 107/127/128 122/150/128 123/136/128
f 120/144/129 119/142/129 134/152/129
f 127/143/130 142/168/130 143/154/130
f 121/146/131 120/144/131 135/153/131
f 121/146/134 136/155/134 137/159/134
f 114/148/135 129/157/135 130/160/135
f 122/150/136 137/159/136 138/161/136
f 115/151/137 130/160/137 131/162/137
f 124/137/138 123/136/138 138/161/138
f 116/135/139 131/162/139 132/164/139
f 124/137/140 139/163/140 140/165/140
f 118/140/141 117/138/141 132/164/141
f 126/141/142 125/139/142 140/165/142
f 118/140/143 133/166/143 134/152/143
f 126/141/144 141/167/144 142/168/144
f 139/163/145 138/161/145 153/169/145
f 131/162/146 146/185/146 147/171/146
f 139/163/147 154/170/147 155/172/147
f 133/166/148 132/164/148 147/171/148
f 141/167/149 140/165/149 155/172/149
f 133/166/150 148/173/150 149/175/150
f 141/167/151 156/174/151 157/176/151
f 135/153/152 134/152/152 149/175/152
f 143/154/153 142/168/153 157/176/153
f 136/155/154 135/153/154 150/177/154
f 136/155/157 151/179/157 152/183/157
f 129/157/158 144/181/158 145/184/158
f 137/159/159 152/183/159 153/169/159
f 131/162/160 130/160/160 145/184/160
f 157/176/161 172/202/161 173/186/161
f 151/179/162 150/177/162 165/187/162
f 151/179/165 166/188/165 167/192/165
f 144/181/166 159/190/166 160/193/166
f 152/183/167 167/192/167 168/194/167
f 146/185/518 145/184/518 160/193/518
f 154/170/169 153/169/169 168/194/169
f 146/185/170 161/195/170 162/197/170
f 154/170/171 169/196/171 170/198/171
f 148/173/172 147/171/172 162/197/172
f 156/174/173 155/172/173 170/198/173
f 148/173/174 163/199/174 164/201/174
f 156/174/519 171/200/519 172/202/519
f 150/177/176 149/175/176 164/201/176
f 169/196/177 184/219/177 185/203/177
f 163/199/178 162/197/178 177/204/178
f 170/198/179 185/203/179 186/206/179
f 163/199/180 178/205/180 179/207/180
f 172/202/181 171/200/181 186/206/181
f 165/187/182 164/201/182 179/207/182
f 173/186/183 172/202/183 187/208/183
f 166/188/184 165/187/184 180/209/184
f 166/188/187 181/211/187 182/215/187
f 159/190/188 174/213/188 175/216/188
f 167/192/189 182/215/189 183/217/189
f 160/193/190 175/216/190 176/218/190
f 169/196/191 168/194/191 183/217/191
f 161/195/192 176/218/192 177/204/192
f 181/211/195 196/236/195 197/224/195
f 175/216/196 174/213/196 189/221/196
f 182/215/197 197/224/197 198/226/197
f 176/218/198 175/216/198 190/225/198
f 184/219/199 183/217/199 198/226/199
f 176/218/200 191/227/200 192/229/200
f 184/219/201 199/228/201 200/230/201
f 178/205/202 177/204/202 192/229/202
f 186/206/203 185/203/203 200/230/203
f 178/205/204 193/231/204 194/233/204
f 186/206/205 201/232/205 202/234/205
f 180/209/206 179/207/206 194/233/206
f 187/208/207 202/234/207 203/223/207
f 181/211/208 180/209/208 195/235/208
f 193/231/209 192/229/209 207/237/209
f 201/232/210 200/230/210 215/239/210
f 193/231/211 208/238/211 209/241/211
f 201/232/520 216/240/520 217/242/520
f 195/235/213 194/233/213 209/241/213
f 202/234/214 217/242/214 218/244/214
f 196/236/215 195/235/215 210/243/215
f 196/236/218 211/245/218 212/249/218
f 189/221/219 204/247/219 205/250/219
f 197/224/220 212/249/220 213/251/220
f 190/225/221 205/250/221 206/252/221
f 199/228/222 198/226/222 213/251/222
f 191/227/223 206/252/223 207/237/223
f 199/228/224 214/253/224 215/239/224
f 211/245/225 226/267/225 227/254/225
f 204/247/226 219/269/226 220/255/226
f 212/249/227 227/254/227 228/256/227
f 205/250/228 220/255/228 221/257/228
f 214/253/229 213/251/229 228/256/229
f 206/252/230 221/257/230 222/259/230
f 214/253/231 229/258/231 230/260/231
f 208/238/232 207/237/232 222/259/232
f 216/240/233 215/239/233 230/260/233
f 208/238/234 223/261/234 224/263/234
f 216/240/235 231/262/235 232/264/235
f 210/243/236 209/241/236 224/263/236
f 217/242/237 232/264/237 233/266/237
f 211/245/238 210/243/238 225/265/238
f 231/262/241 230/260/241 245/271/241
f 223/261/242 238/287/242 239/273/242
f 231/262/243 246/272/243 247/274/243
f 225/265/244 224/263/244 239/273/244
f 233/266/245 232/264/245 247/274/245
f 226/267/246 225/265/246 240/275/246
f 226/267/249 241/277/249 242/281/249
f 219/269/250 234/279/250 235/282/250
f 227/254/251 242/281/251 243/283/251
f 221/257/252 220/255/252 235/282/252
f 229/258/253 228/256/253 243/283/253
f 221/257/254 236/284/254 237/286/254
f 229/258/255 244/285/255 245/271/255
f 223/261/256 222/259/256 237/286/256
f 234/279/257 249/302/257 250/288/257
f 242/281/258 257/304/258 258/289/258
f 235/282/259 250/288/259 251/290/259
f 244/285/260 243/283/260 258/289/260
f 236/284/261 251/290/261 252/292/261
f 244/285/262 259/291/262 260/293/262
f 238/287/263 237/286/263 252/292/263
f 246/272/264 245/271/264 260/293/264
f 238/287/265 253/294/265 254/296/265
f 246/272/266 261/295/266 262/297/266
f 240/275/267 239/273/267 254/296/267
f 247/274/268 262/297/268 263/299/268
f 241/277/521 240/275/521 255/298/521
f 241/277/522 256/300/522 257/304/522
f 253/294/273 268/320/273 269/305/273
f 261/295/274 276/321/274 277/306/274
f 255/298/275 254/296/275 269/305/275
f 262/297/276 277/306/276 278/308/276
f 256/300/277 255/298/277 270/307/277
f 256/300/280 271/309/280 272/313/280
f 250/288/281 249/302/281 264/311/281
f 257/304/282 272/313/282 273/315/282
f 250/288/283 265/314/283 266/316/283
f 259/291/284 258/289/284 273/315/284
f 251/290/285 266/316/285 267/318/285
f 259/291/286 274/317/286 275/319/286
f 253/294/287 252/292/287 267/318/287
f 261/295/288 260/293/288 275/319/288
f 272/313/289 287/337/289 288/322/289
f 265/314/523 280/338/523 281/323/523
f 274/317/291 273/315/291 288/322/291
f 266/316/292 281/323/292 282/325/292
f 274/317/293 289/324/293 290/326/293
f 268/320/294 267/318/294 282/325/294
f 276/321/295 275/319/295 290/326/295
f 268/320/296 283/327/296 284/329/296
f 276/321/524 291/328/524 292/330/524
f 270/307/298 269/305/298 284/329/298
f 278/308/299 277/306/299 292/330/299
f 271/309/300 270/307/300 285/331/300
f 271/309/303 286/333/303 287/337/303
f 265/314/304 264/311/304 279/335/304
f 291/328/305 306/355/305 307/339/305
f 285/331/306 284/329/306 299/340/306
f 293/332/307 292/330/307 307/339/307
f 286/333/308 285/331/308 300/341/308
f 286/333/311 301/343/311 302/347/311
f 279/335/312 294/345/312 295/348/312
f 287/337/313 302/347/313 303/349/313
f 280/338/314 295/348/314 296/350/314
f 289/324/315 288/322/315 303/349/315
f 281/323/316 296/350/316 297/352/316
f 289/324/317 304/351/317 305/353/317
f 283/327/318 282/325/318 297/352/318
f 291/328/319 290/326/319 305/353/319
f 283/327/320 298/354/320 299/340/320
f 304/351/321 303/349/321 318/356/321
f 296/350/322 311/372/322 312/358/322
f 304/351/323 319/357/323 320/359/323
f 298/354/324 297/352/324 312/358/324
f 306/355/325 305/353/325 320/359/325
f 298/354/326 313/360/326 314/362/326
f 306/355/327 321/361/327 322/363/327
f 300/341/328 299/340/328 314/362/328
f 307/339/525 322/363/525 323/365/525
f 301/343/330 300/341/330 315/364/330
f 301/343/333 316/366/333 317/370/333
f 294/345/334 309/368/334 310/371/334
f 302/347/335 317/370/335 318/356/335
f 295/348/336 310/371/336 311/372/336
f 322/363/337 337/389/337 338/373/337
f 316/366/338 315/364/338 330/374/338
f 316/366/341 331/375/341 332/379/341
f 309/368/342 324/377/342 325/380/342
f 317/370/343 332/379/343 333/381/343
f 310/371/344 325/380/344 326/382/344
f 319/357/345 318/356/345 333/381/345
f 311/372/346 326/382/346 327/384/346
f 319/357/347 334/383/347 335/385/347
f 312/358/348 327/384/348 328/386/348
f 321/361/349 320/359/349 335/385/349
f 313/360/350 328/386/350 329/388/350
f 321/361/526 336/387/526 337/389/526
f 315/364/352 314/362/352 329/388/352
f 326/382/353 341/405/353 342/390/353
f 334/383/354 349/406/354 350/391/354
f 328/386/355 327/384/355 342/390/355
f 336/387/356 335/385/356 350/391/356
f 328/386/357 343/392/357 344/394/357
f 336/387/358 351/393/358 352/395/358
f 330/374/359 329/388/359 344/394/359
f 337/389/360 352/395/360 353/397/360
f 331/375/361 330/374/361 345/396/361
f 331/375/364 346/398/364 347/402/364
f 324/377/365 339/400/365 340/403/365
f 332/379/366 347/402/366 348/404/366
f 325/380/367 340/403/367 341/405/367
f 334/383/368 333/381/368 348/404/368
f 346/398/527 345/396/527 360/407/527
f 346/398/528 361/408/528 362/413/528
f 339/400/373 354/410/373 355/414/373
f 347/402/374 362/413/374 363/415/374
f 341/405/375 340/403/375 355/414/375
f 349/406/376 348/404/376 363/415/376
f 341/405/377 356/416/377 357/418/377
f 349/406/378 364/417/378 365/419/378
f 343/392/379 342/390/379 357/418/379
f 351/393/380 350/391/380 365/419/380
f 343/392/381 358/420/381 359/422/381
f 351/393/382 366/421/382 367/423/382
f 345/396/383 344/394/383 359/422/383
f 352/395/384 367/423/384 368/412/384
f 364/424/385 379/454/385 380/425/385
f 358/427/386 357/455/386 372/428/386
f 366/430/387 365/426/387 380/425/387
f 358/427/388 373/429/388 374/432/388
f 366/430/389 381/431/389 382/434/389
f 360/436/390 359/433/390 374/432/390
f 367/435/391 382/434/391 383/438/391
f 361/440/529 360/436/529 375/437/529
f 361/440/530 376/441/530 377/446/530
f 354/442/396 369/444/396 370/448/396
f 362/447/397 377/446/397 378/450/397
f 356/452/398 355/449/398 370/448/398
f 364/424/399 363/451/399 378/450/399
f 356/452/400 371/453/400 372/428/400
f 376/441/403 391/472/403 392/460/403
f 369/444/404 384/457/404 385/461/404
f 377/446/405 392/460/405 393/462/405
f 371/453/406 370/448/406 385/461/406
f 379/454/407 378/450/407 393/462/407
f 371/453/408 386/463/408 387/465/408
f 379/454/409 394/464/409 395/466/409
f 373/429/410 372/428/410 387/465/410
f 381/431/411 380/425/411 395/466/411
f 373/429/412 388/467/412 389/469/412
f 381/431/413 396/468/413 397/470/413
f 375/437/414 374/432/414 389/469/414
f 382/434/415 397/470/415 398/459/415
f 376/441/416 375/437/416 390/471/416
f 388/467/417 387/465/417 402/473/417
f 396/468/418 395/466/418 410/475/418
f 388/467/419 403/474/419 404/477/419
f 397/470/420 396/468/420 411/476/420
f 390/471/421 389/469/421 404/477/421
f 397/470/422 412/478/422 413/480/422
f 391/472/423 390/471/423 405/479/423
f 391/472/426 406/481/426 407/485/426
f 385/461/427 384/457/427 399/483/427
f 392/460/428 407/485/428 408/487/428
f 385/461/429 400/486/429 401/488/429
f 394/464/430 393/462/430 408/487/430
f 386/463/431 401/488/431 402/473/431
f 394/464/432 409/489/432 410/475/432
f 406/481/433 421/503/433 422/490/433
f 399/483/434 414/505/434 415/491/434
f 407/485/435 422/490/435 423/492/435
f 401/488/436 400/486/436 415/491/436
f 409/489/437 408/487/437 423/492/437
f 401/488/438 416/493/438 417/495/438
f 409/489/439 424/494/439 425/496/439
f 403/474/440 402/473/440 417/495/440
f 411/476/441 410/475/441 425/496/441
f 403/474/442 418/497/442 419/499/442
f 411/476/443 426/498/443 427/500/443
f 405/479/444 404/477/444 419/499/444
f 412/478/445 427/500/445 428/502/445
f 406/481/446 405/479/446 420/501/446
f 426/498/449 425/496/449 440/507/449
f 418/497/450 433/523/450 434/509/450
f 426/498/451 441/508/451 442/510/451
f 420/501/452 419/499/452 434/509/452
f 427/500/453 442/510/453 443/512/453
f 421/503/454 420/501/454 435/511/454
f 421/503/457 436/513/457 437/517/457
f 414/505/458 429/515/458 430/518/458
f 422/490/459 437/517/459 438/519/459
f 416/493/460 415/491/460 430/518/460
f 424/494/461 423/492/461 438/519/461
f 416/493/462 431/520/462 432/522/462
f 424/494/463 439/521/463 440/507/463
f 418/497/464 417/495/464 432/522/464
f 437/517/465 452/539/465 453/524/465
f 430/518/466 445/540/466 446/525/466
f 439/521/467 438/519/467 453/524/467
f 431/520/468 446/525/468 447/527/468
f 439/521/469 454/526/469 455/528/469
f 433/523/470 432/522/470 447/527/470
f 441/508/471 440/507/471 455/528/471
f 433/523/472 448/529/472 449/531/472
f 441/508/473 456/530/473 457/532/473
f 435/511/474 434/509/474 449/531/474
f 442/510/475 457/532/475 458/534/475
f 436/513/476 435/511/476 450/533/476
f 436/513/479 451/535/479 452/539/479
f 430/518/480 429/515/480 444/537/480
f 456/530/481 471/557/481 472/541/481
f 450/533/482 449/531/482 464/542/482
f 458/534/483 457/532/483 472/541/483
f 451/535/484 450/533/484 465/543/484
f 451/535/487 466/545/487 467/549/487
f 444/537/488 459/547/488 460/550/488
f 452/539/489 467/549/489 468/551/489
f 446/525/490 445/540/490 460/550/490
f 454/526/491 453/524/491 468/551/491
f 446/525/492 461/552/492 462/554/492
f 454/526/493 469/553/493 470/555/493
f 448/529/494 447/527/494 462/554/494
f 456/530/495 455/528/495 470/555/495
f 448/529/496 463/556/496 464/542/496
f 461/552/497 460/550/497 475/32/497
f 468/551/498 478/3/498 7/8/498
f 462/554/499 461/552/499 2/4/499
f 469/553/500 7/8/500 479/12/500
f 463/556/501 462/554/501 476/9/501
f 471/557/502 470/555/502 479/12/502
f 464/542/503 463/556/503 3/13/503
f 471/557/504 480/16/504 481/20/504
f 465/543/505 464/542/505 477/17/505
f 472/541/506 481/20/506 482/24/506
f 466/545/507 465/543/507 4/21/507
f 466/545/510 5/26/510 6/1/510
f 460/550/511 459/547/511 474/27/511
f 467/549/512 6/1/512 478/3/512
